<mxfile host="app.diagrams.net" modified="2024-01-26T01:46:20.768Z" agent="Mozilla/5.0 (Macintosh; Intel Mac OS X 10_15_7) AppleWebKit/605.1.15 (KHTML, like Gecko) Version/17.2.1 Safari/605.1.15" version="23.0.0" etag="rQczhhd-ODdrX-7F4AFd" type="device">
  <diagram name="Page-1" id="Page-1">
    <mxGraphModel dx="1434" dy="802" grid="1" gridSize="10" guides="1" tooltips="1" connect="1" arrows="1" fold="1" page="1" pageScale="1" pageWidth="1169" pageHeight="827" math="0" shadow="0">
      <root>
        <mxCell id="0" />
        <mxCell id="1" parent="0" />
        <UserObject label="" tags="Background" id="2">
          <mxCell style="vsdxID=1;fillColor=#FFFFFF;gradientColor=none;shape=stencil(nZBRDoQgDERP03+WHsHFe5iISyOCQdT19kIaIxq//Jtp3zTpAFaTaUYNUkwx+F6v1EYD+AUpyRkdKCYFqACrzgf9C352LfuxyWRWg1/yhT/nRE5IsZWuZtCSK8CPeI0e/hF+jV7AJM4PO7KWCyr390bSiNtEtQM=);strokeColor=#000000;strokeWidth=2;spacingTop=-3;spacingBottom=-3;spacingLeft=-3;spacingRight=-3;points=[];labelBackgroundColor=none;rounded=0;html=1;whiteSpace=wrap;" parent="1" vertex="1">
            <mxGeometry x="280" y="321" width="758" height="177" as="geometry" />
          </mxCell>
        </UserObject>
        <UserObject label="" tags="Background" id="3">
          <mxCell style="vsdxID=2;fillColor=#FFFFFF;gradientColor=none;shape=stencil(nZBRDoQgDERP03+WHsHFe5iISyOCQdT19kIaIxq//Jtp3zTpAFaTaUYNUkwx+F6v1EYD+AUpyRkdKCYFqACrzgf9C352LfuxyWRWg1/yhT/nRE5IsZWuZtCSK8CPeI0e/hF+jV7AJM4PO7KWCyr390bSiNtEtQM=);strokeColor=#000000;strokeWidth=2;spacingTop=-3;spacingBottom=-3;spacingLeft=-3;spacingRight=-3;points=[];labelBackgroundColor=none;rounded=0;html=1;whiteSpace=wrap;" parent="1" vertex="1">
            <mxGeometry x="280" y="497" width="758" height="177" as="geometry" />
          </mxCell>
        </UserObject>
        <UserObject label="" tags="Background" id="4">
          <mxCell style="vsdxID=3;fillColor=#FFFFFF;gradientColor=none;shape=stencil(nZBRDoQgDERP03+WHsHFe5iISyOCQdT19kIaIxq//Jtp3zTpAFaTaUYNUkwx+F6v1EYD+AUpyRkdKCYFqACrzgf9C352LfuxyWRWg1/yhT/nRE5IsZWuZtCSK8CPeI0e/hF+jV7AJM4PO7KWCyr390bSiNtEtQM=);strokeColor=#000000;strokeWidth=2;spacingTop=-3;spacingBottom=-3;spacingLeft=-3;spacingRight=-3;points=[];labelBackgroundColor=none;rounded=0;html=1;whiteSpace=wrap;" parent="1" vertex="1">
            <mxGeometry x="280" y="672" width="758" height="177" as="geometry" />
          </mxCell>
        </UserObject>
        <UserObject label="" tags="Background" id="5">
          <mxCell style="vsdxID=4;fillColor=#FFFFFF;gradientColor=none;shape=stencil(nZBRDoQgDERP03+WHsHFe5iISyOCQdT19kIaIxq//Jtp3zTpAFaTaUYNUkwx+F6v1EYD+AUpyRkdKCYFqACrzgf9C352LfuxyWRWg1/yhT/nRE5IsZWuZtCSK8CPeI0e/hF+jV7AJM4PO7KWCyr390bSiNtEtQM=);strokeColor=#000000;strokeWidth=2;spacingTop=-3;spacingBottom=-3;spacingLeft=-3;spacingRight=-3;points=[];labelBackgroundColor=none;rounded=0;html=1;whiteSpace=wrap;" parent="1" vertex="1">
            <mxGeometry x="280" y="960" width="758" height="198" as="geometry" />
          </mxCell>
        </UserObject>
        <UserObject label="" tags="Background" id="6">
          <mxCell style="vsdxID=5;fillColor=#FFFFFF;gradientColor=none;shape=stencil(nZBRDoQgDERP03+WHsHFe5iISyOCQdT19kIaIxq//Jtp3zTpAFaTaUYNUkwx+F6v1EYD+AUpyRkdKCYFqACrzgf9C352LfuxyWRWg1/yhT/nRE5IsZWuZtCSK8CPeI0e/hF+jV7AJM4PO7KWCyr390bSiNtEtQM=);strokeColor=#000000;strokeWidth=2;spacingTop=-3;spacingBottom=-3;spacingLeft=-3;spacingRight=-3;points=[];labelBackgroundColor=none;rounded=0;html=1;whiteSpace=wrap;" parent="1" vertex="1">
            <mxGeometry x="280" y="1158" width="758" height="177" as="geometry" />
          </mxCell>
        </UserObject>
        <UserObject label="&lt;div style=&quot;font-size: 1px&quot;&gt;&lt;p style=&quot;text-align:center;margin-left:0;margin-right:0;margin-top:0px;margin-bottom:0px;text-indent:0;vertical-align:middle;direction:ltr;&quot;&gt;&lt;font style=&quot;font-size:16px;font-family:0;color:#000000;direction:ltr;letter-spacing:0px;line-height:120%;opacity:1&quot;&gt;用户&lt;/font&gt;&lt;/p&gt;&lt;/div&gt;" tags="Background" id="7">
          <mxCell style="verticalAlign=middle;align=center;overflow=width;vsdxID=6;fillColor=none;gradientColor=none;image;aspect=fixed;image=data:image/png,iVBORw0KGgoAAAANSUhEUgAAADIAAAAyCAYAAAAeP4ixAAAAAXNSR0IArs4c6QAAA85JREFUaEPdmu1x2zAMhkFlgWzQ3tn/owXqOpO0I3SDJBt0hHSDbhDZXcD579y1G2SBmj2KgvklEgApp736LpdzJJF4ABJ4QUXBf/JRUo51v90CnLYA3WCePR6G8XfrZ91v7t0Y8rHZIGYireEuNVgPSl091ALlxzUz6eHl+cctx0kskNXNhycAtbUDGsPVTmv90X63f1cKHo6HvedVevoYwowxzjCOjfMBvDzvSTvJG9xk8573jZHAmCWq9ekp5wR7/fedAeKMWwQJJ+tuc8sHYTgTYpwwytQzq5uN5kScAMF9Qa9VN2EeGCGcg+hxuU4qgjiv0cZJ7pWB4BIsQ/9VEGpZmQhyoVlLizNh3dKiM9KiIMYzpRToZzZu3uduYq6DROl3zsgw/dJ7yW14V2BzEZc4iAHi8v1kxE+l4JfW8A4ArqcfUxB3x8N+Kpp0MTR3rPrNI2j4NN39CgCvoGAHGkyxfY+jNBVEvyDxzJrqvKKjYj0dVm9qDlv1uyFXy2Yj4hdCJ0uujHzoNZx6dfZW9/14GL6i4DNaTE0gTlz6JlpD/A2MOs1Ex4w7RlrBTkH3aO8NNR6OH4MnIJR0KHkOjZ8Xl/iklTrmm0RoUlIoAeFmkzmgeSWrPZnvhKBE2c4niHAJByBcOTAH4SvkfBZyQhCXLDddpzBhpT+D+N7kZAkfhgp7DC69P35+rrYkIJwqHkKU5XhuTy3jOBeVMwhS1keDVrJ5z8qbstjeEYSrZ0p7I5cWy1mO3yakTrBdK847gdgBpctqrM7nxocuhOlecctSuhLitmExEKkhCNW6pNH5AQglE8Lrdk8sExEcyz/k4FkTgSTCkDGKnbyl9sR7MzytYZjgnd6Q6pcargVE0h5TdjSDhBuen0YlvQYFYa4vAiKt1LXNWAloERBbi4KObwfQ3cfqdtwTcPqMzVRNus/BLAJSOL+1XZ/tJM0Hf5/tWQqmCSQF0IMGda2swedWNfKiaZW/xT1LK1A1SHqwnZ7Ir/vtF9tRdgcDY7rJUHDaVwkI1QJTBRL2HnJpkkoVv52Vi8+qrOUg2t6LlHRXTfcoikhLD8GpBeGhhywybJBL5P45OO6rjPhZNkjLoQQnGnESsAmAHxUWSIuekkI4eR82TtQ4LJC3jAYaLO1aSRB/zdY2T5Q3c9clvQ4DpL4NrgWoWV4kCPelZavR5QxGb3oBSHsFl8JK9gkDxL4efuv9YVsD3otQlkSpPeWQep/a8JQj2RHBf69YykDuOKiMFwPhTnyp+5pBwn8/upSZ1Lj5V274JLm0qCn+let/ACm4oGCRbFpBAAAAAElFTkSuQmCC;strokeColor=none;strokeWidth=0;points=[];labelBackgroundColor=none;rounded=0;html=1;whiteSpace=wrap;" parent="1" vertex="1">
            <mxGeometry x="633" y="368" width="75" height="76" as="geometry" />
          </mxCell>
        </UserObject>
        <UserObject label="&lt;div style=&quot;font-size: 1px&quot;&gt;&lt;p style=&quot;text-align:center;margin-left:0;margin-right:0;margin-top:0px;margin-bottom:0px;text-indent:0;vertical-align:middle;direction:ltr;&quot;&gt;&lt;font style=&quot;font-size:16px;font-family:0;color:#000000;direction:ltr;letter-spacing:0px;line-height:120%;opacity:1&quot;&gt;用&lt;br/&gt;&lt;/font&gt;&lt;font style=&quot;font-size:16px;font-family:0;color:#000000;direction:ltr;letter-spacing:0px;line-height:120%;opacity:1&quot;&gt;户&lt;br/&gt;&lt;/font&gt;&lt;font style=&quot;font-size:16px;font-family:0;color:#000000;direction:ltr;letter-spacing:0px;line-height:120%;opacity:1&quot;&gt;层&lt;/font&gt;&lt;/p&gt;&lt;/div&gt;" tags="Background" id="8">
          <mxCell style="verticalAlign=middle;align=center;overflow=width;vsdxID=7;fillColor=none;gradientColor=none;shape=stencil(nZBLDoAgDAVP0z3SIyjeg0SURgWD+Lu9EGL8xBW7N828Ji1gOWs5KeBs9s72aqPGa8AKOCejlSMfEqAALFvrVOfsYprEk4xmTKNd44Y99VhscHY8qU7iQOYhFixbvfhXzlZfYgj3hQG+54dReh2KEw==);strokeColor=none;strokeWidth=0;spacingTop=-3;spacingBottom=-3;spacingLeft=-3;spacingRight=-3;points=[];labelBackgroundColor=none;rounded=0;html=1;whiteSpace=wrap;" parent="1" vertex="1">
            <mxGeometry x="249" y="375" width="101" height="60" as="geometry" />
          </mxCell>
        </UserObject>
        <UserObject label="&lt;div style=&quot;font-size: 1px&quot;&gt;&lt;p style=&quot;text-align:center;margin-left:0;margin-right:0;margin-top:0px;margin-bottom:0px;text-indent:0;vertical-align:middle;direction:ltr;&quot;&gt;&lt;font style=&quot;font-size:16px;font-family:0;color:#000000;direction:ltr;letter-spacing:0px;line-height:120%;opacity:1&quot;&gt;应&lt;br/&gt;&lt;/font&gt;&lt;font style=&quot;font-size:16px;font-family:0;color:#000000;direction:ltr;letter-spacing:0px;line-height:120%;opacity:1&quot;&gt;用&lt;br/&gt;&lt;/font&gt;&lt;font style=&quot;font-size:16px;font-family:0;color:#000000;direction:ltr;letter-spacing:0px;line-height:120%;opacity:1&quot;&gt;层&lt;/font&gt;&lt;/p&gt;&lt;/div&gt;" tags="Background" id="9">
          <mxCell style="verticalAlign=middle;align=center;overflow=width;vsdxID=8;fillColor=none;gradientColor=none;shape=stencil(nZBLDoAgDAVP0z3SIyjeg0SURgWD+Lu9EGL8xBW7N828Ji1gOWs5KeBs9s72aqPGa8AKOCejlSMfEqAALFvrVOfsYprEk4xmTKNd44Y99VhscHY8qU7iQOYhFixbvfhXzlZfYgj3hQG+54dReh2KEw==);strokeColor=none;strokeWidth=0;spacingTop=-3;spacingBottom=-3;spacingLeft=-3;spacingRight=-3;points=[];labelBackgroundColor=none;rounded=0;html=1;whiteSpace=wrap;" parent="1" vertex="1">
            <mxGeometry x="249" y="555" width="101" height="60" as="geometry" />
          </mxCell>
        </UserObject>
        <UserObject label="&lt;div style=&quot;font-size: 1px&quot;&gt;&lt;p style=&quot;text-align:center;margin-left:0;margin-right:0;margin-top:0px;margin-bottom:0px;text-indent:0;vertical-align:middle;direction:ltr;&quot;&gt;&lt;font style=&quot;font-size:16px;font-family:0;color:#000000;direction:ltr;letter-spacing:0px;line-height:120%;opacity:1&quot;&gt;服&lt;br/&gt;&lt;/font&gt;&lt;font style=&quot;font-size:16px;font-family:0;color:#000000;direction:ltr;letter-spacing:0px;line-height:120%;opacity:1&quot;&gt;务&lt;br/&gt;&lt;/font&gt;&lt;font style=&quot;font-size:16px;font-family:0;color:#000000;direction:ltr;letter-spacing:0px;line-height:120%;opacity:1&quot;&gt;支&lt;br/&gt;&lt;/font&gt;&lt;font style=&quot;font-size:16px;font-family:0;color:#000000;direction:ltr;letter-spacing:0px;line-height:120%;opacity:1&quot;&gt;撑&lt;br/&gt;&lt;/font&gt;&lt;font style=&quot;font-size:16px;font-family:0;color:#000000;direction:ltr;letter-spacing:0px;line-height:120%;opacity:1&quot;&gt;层&lt;/font&gt;&lt;/p&gt;&lt;/div&gt;" tags="Background" id="10">
          <mxCell style="verticalAlign=middle;align=center;overflow=width;vsdxID=9;fillColor=none;gradientColor=none;shape=stencil(nZBLDoAgDAVP0z3SIyjeg0SURgWD+Lu9EGL8xBW7N828Ji1gOWs5KeBs9s72aqPGa8AKOCejlSMfEqAALFvrVOfsYprEk4xmTKNd44Y99VhscHY8qU7iQOYhFixbvfhXzlZfYgj3hQG+54dReh2KEw==);strokeColor=none;strokeWidth=0;spacingTop=-3;spacingBottom=-3;spacingLeft=-3;spacingRight=-3;points=[];labelBackgroundColor=none;rounded=0;html=1;whiteSpace=wrap;" parent="1" vertex="1">
            <mxGeometry x="249" y="710" width="101" height="100" as="geometry" />
          </mxCell>
        </UserObject>
        <UserObject label="&lt;div style=&quot;font-size: 1px&quot;&gt;&lt;p style=&quot;text-align:center;margin-left:0;margin-right:0;margin-top:0px;margin-bottom:0px;text-indent:0;vertical-align:middle;direction:ltr;&quot;&gt;&lt;font style=&quot;font-size:16px;font-family:0;color:#000000;direction:ltr;letter-spacing:0px;line-height:120%;opacity:1&quot;&gt;数&lt;br/&gt;&lt;/font&gt;&lt;font style=&quot;font-size:16px;font-family:0;color:#000000;direction:ltr;letter-spacing:0px;line-height:120%;opacity:1&quot;&gt;据&lt;br/&gt;&lt;/font&gt;&lt;font style=&quot;font-size:16px;font-family:0;color:#000000;direction:ltr;letter-spacing:0px;line-height:120%;opacity:1&quot;&gt;存&lt;br/&gt;&lt;/font&gt;&lt;font style=&quot;font-size:16px;font-family:0;color:#000000;direction:ltr;letter-spacing:0px;line-height:120%;opacity:1&quot;&gt;储&lt;br/&gt;&lt;/font&gt;&lt;font style=&quot;font-size:16px;font-family:0;color:#000000;direction:ltr;letter-spacing:0px;line-height:120%;opacity:1&quot;&gt;层&lt;/font&gt;&lt;/p&gt;&lt;/div&gt;" tags="Background" id="11">
          <mxCell style="verticalAlign=middle;align=center;overflow=width;vsdxID=10;fillColor=none;gradientColor=none;shape=stencil(nZBLDoAgDAVP0z3SIyjeg0SURgWD+Lu9EGL8xBW7N828Ji1gOWs5KeBs9s72aqPGa8AKOCejlSMfEqAALFvrVOfsYprEk4xmTKNd44Y99VhscHY8qU7iQOYhFixbvfhXzlZfYgj3hQG+54dReh2KEw==);strokeColor=none;strokeWidth=0;spacingTop=-3;spacingBottom=-3;spacingLeft=-3;spacingRight=-3;points=[];labelBackgroundColor=none;rounded=0;html=1;whiteSpace=wrap;" parent="1" vertex="1">
            <mxGeometry x="249" y="1000" width="101" height="100" as="geometry" />
          </mxCell>
        </UserObject>
        <UserObject label="&lt;div style=&quot;font-size: 1px&quot;&gt;&lt;p style=&quot;text-align:center;margin-left:0;margin-right:0;margin-top:0px;margin-bottom:0px;text-indent:0;vertical-align:middle;direction:ltr;&quot;&gt;&lt;font style=&quot;font-size:16px;font-family:0;color:#000000;direction:ltr;letter-spacing:0px;line-height:120%;opacity:1&quot;&gt;基&lt;br/&gt;&lt;/font&gt;&lt;font style=&quot;font-size:16px;font-family:0;color:#000000;direction:ltr;letter-spacing:0px;line-height:120%;opacity:1&quot;&gt;础&lt;br/&gt;&lt;/font&gt;&lt;font style=&quot;font-size:16px;font-family:0;color:#000000;direction:ltr;letter-spacing:0px;line-height:120%;opacity:1&quot;&gt;支&lt;br/&gt;&lt;/font&gt;&lt;font style=&quot;font-size:16px;font-family:0;color:#000000;direction:ltr;letter-spacing:0px;line-height:120%;opacity:1&quot;&gt;撑&lt;br/&gt;&lt;/font&gt;&lt;font style=&quot;font-size:16px;font-family:0;color:#000000;direction:ltr;letter-spacing:0px;line-height:120%;opacity:1&quot;&gt;层&lt;/font&gt;&lt;/p&gt;&lt;/div&gt;" tags="Background" id="12">
          <mxCell style="verticalAlign=middle;align=center;overflow=width;vsdxID=11;fillColor=none;gradientColor=none;shape=stencil(nZBLDoAgDAVP0z3SIyjeg0SURgWD+Lu9EGL8xBW7N828Ji1gOWs5KeBs9s72aqPGa8AKOCejlSMfEqAALFvrVOfsYprEk4xmTKNd44Y99VhscHY8qU7iQOYhFixbvfhXzlZfYgj3hQG+54dReh2KEw==);strokeColor=none;strokeWidth=0;spacingTop=-3;spacingBottom=-3;spacingLeft=-3;spacingRight=-3;points=[];labelBackgroundColor=none;rounded=0;html=1;whiteSpace=wrap;" parent="1" vertex="1">
            <mxGeometry x="249" y="1197" width="101" height="100" as="geometry" />
          </mxCell>
        </UserObject>
        <UserObject label="&lt;div style=&quot;font-size: 1px&quot;&gt;&lt;p style=&quot;text-align:center;margin-left:0;margin-right:0;margin-top:0px;margin-bottom:0px;text-indent:0;vertical-align:middle;direction:ltr;&quot;&gt;&lt;font style=&quot;font-size:12px;font-family:0;color:#000000;direction:ltr;letter-spacing:0px;line-height:120%;opacity:1&quot;&gt;安全认证&lt;/font&gt;&lt;/p&gt;&lt;/div&gt;" tags="Background" id="13">
          <mxCell style="verticalAlign=middle;align=center;overflow=width;vsdxID=12;fillColor=#FFFFFF;gradientColor=none;shape=stencil(nZBRDoQgDERP03+WHsHFe5iISyOCQdT19kIaIxq//Jtp3zTpAFaTaUYNUkwx+F6v1EYD+AUpyRkdKCYFqACrzgf9C352LfuxyWRWg1/yhT/nRE5IsZWuZtCSK8CPeI0e/hF+jV7AJM4PO7KWCyr390bSiNtEtQM=);strokeColor=#000000;strokeWidth=2;spacingTop=-3;spacingBottom=-3;spacingLeft=-3;spacingRight=-3;points=[];labelBackgroundColor=none;rounded=0;html=1;whiteSpace=wrap;" parent="1" vertex="1">
            <mxGeometry x="349" y="533" width="38" height="108" as="geometry" />
          </mxCell>
        </UserObject>
        <UserObject label="&lt;div style=&quot;font-size: 1px&quot;&gt;&lt;p style=&quot;text-align:center;margin-left:0;margin-right:0;margin-top:0px;margin-bottom:0px;text-indent:0;vertical-align:middle;direction:ltr;&quot;&gt;&lt;font style=&quot;font-size:12px;font-family:0;color:#000000;direction:ltr;letter-spacing:0px;line-height:120%;opacity:1&quot;&gt;应用伪装&lt;/font&gt;&lt;/p&gt;&lt;/div&gt;" tags="Background" id="14">
          <mxCell style="verticalAlign=middle;align=center;overflow=width;vsdxID=13;fillColor=#FFFFFF;gradientColor=none;shape=stencil(nZBRDoQgDERP03+WHsHFe5iISyOCQdT19kIaIxq//Jtp3zTpAFaTaUYNUkwx+F6v1EYD+AUpyRkdKCYFqACrzgf9C352LfuxyWRWg1/yhT/nRE5IsZWuZtCSK8CPeI0e/hF+jV7AJM4PO7KWCyr390bSiNtEtQM=);strokeColor=#000000;strokeWidth=2;spacingTop=-3;spacingBottom=-3;spacingLeft=-3;spacingRight=-3;points=[];labelBackgroundColor=none;rounded=0;html=1;whiteSpace=wrap;" parent="1" vertex="1">
            <mxGeometry x="401" y="533" width="38" height="108" as="geometry" />
          </mxCell>
        </UserObject>
        <UserObject label="&lt;div style=&quot;font-size: 1px&quot;&gt;&lt;p style=&quot;text-align:center;margin-left:0;margin-right:0;margin-top:0px;margin-bottom:0px;text-indent:0;vertical-align:middle;direction:ltr;&quot;&gt;&lt;font style=&quot;font-size:12px;font-family:0;color:#000000;direction:ltr;letter-spacing:0px;line-height:120%;opacity:1&quot;&gt;任务管理&lt;/font&gt;&lt;/p&gt;&lt;/div&gt;" tags="Background" id="15">
          <mxCell style="verticalAlign=middle;align=center;overflow=width;vsdxID=14;fillColor=#FFFFFF;gradientColor=none;shape=stencil(nZBRDoQgDERP03+WHsHFe5iISyOCQdT19kIaIxq//Jtp3zTpAFaTaUYNUkwx+F6v1EYD+AUpyRkdKCYFqACrzgf9C352LfuxyWRWg1/yhT/nRE5IsZWuZtCSK8CPeI0e/hF+jV7AJM4PO7KWCyr390bSiNtEtQM=);strokeColor=#000000;strokeWidth=2;spacingTop=-3;spacingBottom=-3;spacingLeft=-3;spacingRight=-3;points=[];labelBackgroundColor=none;rounded=0;html=1;whiteSpace=wrap;" parent="1" vertex="1">
            <mxGeometry x="925" y="533" width="38" height="108" as="geometry" />
          </mxCell>
        </UserObject>
        <UserObject label="&lt;div style=&quot;font-size: 1px&quot;&gt;&lt;p style=&quot;text-align:center;margin-left:0;margin-right:0;margin-top:0px;margin-bottom:0px;text-indent:0;vertical-align:middle;direction:ltr;&quot;&gt;&lt;font style=&quot;font-size:12px;font-family:0;color:#000000;direction:ltr;letter-spacing:0px;line-height:120%;opacity:1&quot;&gt;通讯录管理&lt;/font&gt;&lt;/p&gt;&lt;/div&gt;" tags="Background" id="16">
          <mxCell style="verticalAlign=middle;align=center;overflow=width;vsdxID=15;fillColor=#FFFFFF;gradientColor=none;shape=stencil(nZBRDoQgDERP03+WHsHFe5iISyOCQdT19kIaIxq//Jtp3zTpAFaTaUYNUkwx+F6v1EYD+AUpyRkdKCYFqACrzgf9C352LfuxyWRWg1/yhT/nRE5IsZWuZtCSK8CPeI0e/hF+jV7AJM4PO7KWCyr390bSiNtEtQM=);strokeColor=#000000;strokeWidth=2;spacingTop=-3;spacingBottom=-3;spacingLeft=-3;spacingRight=-3;points=[];labelBackgroundColor=none;rounded=0;html=1;whiteSpace=wrap;" parent="1" vertex="1">
            <mxGeometry x="513" y="533" width="38" height="108" as="geometry" />
          </mxCell>
        </UserObject>
        <UserObject label="&lt;div style=&quot;font-size: 1px&quot;&gt;&lt;p style=&quot;text-align:center;margin-left:0;margin-right:0;margin-top:0px;margin-bottom:0px;text-indent:0;vertical-align:middle;direction:ltr;&quot;&gt;&lt;font style=&quot;font-size:12px;font-family:0;color:#000000;direction:ltr;letter-spacing:0px;line-height:120%;opacity:1&quot;&gt;软件设置&lt;/font&gt;&lt;/p&gt;&lt;/div&gt;" tags="Background" id="17">
          <mxCell style="verticalAlign=middle;align=center;overflow=width;vsdxID=16;fillColor=#FFFFFF;gradientColor=none;shape=stencil(nZBRDoQgDERP03+WHsHFe5iISyOCQdT19kIaIxq//Jtp3zTpAFaTaUYNUkwx+F6v1EYD+AUpyRkdKCYFqACrzgf9C352LfuxyWRWg1/yhT/nRE5IsZWuZtCSK8CPeI0e/hF+jV7AJM4PO7KWCyr390bSiNtEtQM=);strokeColor=#000000;strokeWidth=2;spacingTop=-3;spacingBottom=-3;spacingLeft=-3;spacingRight=-3;points=[];labelBackgroundColor=none;rounded=0;html=1;whiteSpace=wrap;" parent="1" vertex="1">
            <mxGeometry x="976" y="533" width="38" height="108" as="geometry" />
          </mxCell>
        </UserObject>
        <UserObject label="&lt;div style=&quot;font-size: 1px&quot;&gt;&lt;p style=&quot;text-align:center;margin-left:0;margin-right:0;margin-top:0px;margin-bottom:0px;text-indent:0;vertical-align:middle;direction:ltr;&quot;&gt;&lt;font style=&quot;font-size:16px;font-family:0;color:#000000;direction:ltr;letter-spacing:0px;line-height:120%;opacity:1&quot;&gt;组&lt;br/&gt;&lt;/font&gt;&lt;font style=&quot;font-size:16px;font-family:0;color:#000000;direction:ltr;letter-spacing:0px;line-height:120%;opacity:1&quot;&gt;件&lt;br/&gt;&lt;/font&gt;&lt;font style=&quot;font-size:16px;font-family:0;color:#000000;direction:ltr;letter-spacing:0px;line-height:120%;opacity:1&quot;&gt;层&lt;/font&gt;&lt;/p&gt;&lt;/div&gt;" tags="Background" id="18">
          <mxCell style="verticalAlign=middle;align=center;overflow=width;vsdxID=17;fillColor=none;gradientColor=none;shape=stencil(nZBLDoAgDAVP0z3SIyjeg0SURgWD+Lu9EGL8xBW7N828Ji1gOWs5KeBs9s72aqPGa8AKOCejlSMfEqAALFvrVOfsYprEk4xmTKNd44Y99VhscHY8qU7iQOYhFixbvfhXzlZfYgj3hQG+54dReh2KEw==);strokeColor=none;strokeWidth=0;spacingTop=-3;spacingBottom=-3;spacingLeft=-3;spacingRight=-3;points=[];labelBackgroundColor=none;rounded=0;html=1;whiteSpace=wrap;" parent="1" vertex="1">
            <mxGeometry x="286" y="689" width="101" height="60" as="geometry" />
          </mxCell>
        </UserObject>
        <UserObject label="&lt;div style=&quot;font-size: 1px&quot;&gt;&lt;p style=&quot;text-align:center;margin-left:0;margin-right:0;margin-top:0px;margin-bottom:0px;text-indent:0;vertical-align:middle;direction:ltr;&quot;&gt;&lt;font style=&quot;font-size:16px;font-family:0;color:#000000;direction:ltr;letter-spacing:0px;line-height:120%;opacity:1&quot;&gt;支&lt;br/&gt;&lt;/font&gt;&lt;font style=&quot;font-size:16px;font-family:0;color:#000000;direction:ltr;letter-spacing:0px;line-height:120%;opacity:1&quot;&gt;撑&lt;br/&gt;&lt;/font&gt;&lt;font style=&quot;font-size:16px;font-family:0;color:#000000;direction:ltr;letter-spacing:0px;line-height:120%;opacity:1&quot;&gt;层&lt;/font&gt;&lt;/p&gt;&lt;/div&gt;" tags="Background" id="19">
          <mxCell style="verticalAlign=middle;align=center;overflow=width;vsdxID=18;fillColor=none;gradientColor=none;shape=stencil(nZBLDoAgDAVP0z3SIyjeg0SURgWD+Lu9EGL8xBW7N828Ji1gOWs5KeBs9s72aqPGa8AKOCejlSMfEqAALFvrVOfsYprEk4xmTKNd44Y99VhscHY8qU7iQOYhFixbvfhXzlZfYgj3hQG+54dReh2KEw==);strokeColor=none;strokeWidth=0;spacingTop=-3;spacingBottom=-3;spacingLeft=-3;spacingRight=-3;points=[];labelBackgroundColor=none;rounded=0;html=1;whiteSpace=wrap;" parent="1" vertex="1">
            <mxGeometry x="286" y="768" width="101" height="60" as="geometry" />
          </mxCell>
        </UserObject>
        <UserObject label="&lt;div style=&quot;font-size: 1px&quot;&gt;&lt;p style=&quot;text-align:center;margin-left:0;margin-right:0;margin-top:0px;margin-bottom:0px;text-indent:0;vertical-align:middle;direction:ltr;&quot;&gt;&lt;font style=&quot;font-size:12px;font-family:0;color:#000000;direction:ltr;letter-spacing:0px;line-height:120%;opacity:1&quot;&gt;北斗定位&lt;/font&gt;&lt;/p&gt;&lt;/div&gt;" tags="Background" id="20">
          <mxCell style="verticalAlign=middle;align=center;overflow=width;vsdxID=19;fillColor=#FFFFFF;gradientColor=none;shape=stencil(nZBRDoQgDERP03+WHsHFe5iISyOCQdT19kIaIxq//Jtp3zTpAFaTaUYNUkwx+F6v1EYD+AUpyRkdKCYFqACrzgf9C352LfuxyWRWg1/yhT/nRE5IsZWuZtCSK8CPeI0e/hF+jV7AJM4PO7KWCyr390bSiNtEtQM=);strokeColor=#000000;strokeWidth=2;spacingTop=-3;spacingBottom=-3;spacingLeft=-3;spacingRight=-3;points=[];labelBackgroundColor=none;rounded=0;html=1;whiteSpace=wrap;" parent="1" vertex="1">
            <mxGeometry x="357" y="698" width="101" height="42" as="geometry" />
          </mxCell>
        </UserObject>
        <UserObject label="&lt;div style=&quot;font-size: 1px&quot;&gt;&lt;p style=&quot;text-align:center;margin-left:0;margin-right:0;margin-top:0px;margin-bottom:0px;text-indent:0;vertical-align:middle;direction:ltr;&quot;&gt;&lt;font style=&quot;font-size:12px;font-family:0;color:#000000;direction:ltr;letter-spacing:0px;line-height:120%;opacity:1&quot;&gt;地图导航&lt;/font&gt;&lt;/p&gt;&lt;/div&gt;" tags="Background" id="21">
          <mxCell style="verticalAlign=middle;align=center;overflow=width;vsdxID=20;fillColor=#FFFFFF;gradientColor=none;shape=stencil(nZBRDoQgDERP03+WHsHFe5iISyOCQdT19kIaIxq//Jtp3zTpAFaTaUYNUkwx+F6v1EYD+AUpyRkdKCYFqACrzgf9C352LfuxyWRWg1/yhT/nRE5IsZWuZtCSK8CPeI0e/hF+jV7AJM4PO7KWCyr390bSiNtEtQM=);strokeColor=#000000;strokeWidth=2;spacingTop=-3;spacingBottom=-3;spacingLeft=-3;spacingRight=-3;points=[];labelBackgroundColor=none;rounded=0;html=1;whiteSpace=wrap;" parent="1" vertex="1">
            <mxGeometry x="467" y="698" width="101" height="42" as="geometry" />
          </mxCell>
        </UserObject>
        <UserObject label="&lt;div style=&quot;font-size: 1px&quot;&gt;&lt;p style=&quot;text-align:center;margin-left:0;margin-right:0;margin-top:0px;margin-bottom:0px;text-indent:0;vertical-align:middle;direction:ltr;&quot;&gt;&lt;font style=&quot;font-size:12px;font-family:0;color:#000000;direction:ltr;letter-spacing:0px;line-height:120%;opacity:1&quot;&gt;态势感知&lt;/font&gt;&lt;/p&gt;&lt;/div&gt;" tags="Background" id="22">
          <mxCell style="verticalAlign=middle;align=center;overflow=width;vsdxID=21;fillColor=#FFFFFF;gradientColor=none;shape=stencil(nZBRDoQgDERP03+WHsHFe5iISyOCQdT19kIaIxq//Jtp3zTpAFaTaUYNUkwx+F6v1EYD+AUpyRkdKCYFqACrzgf9C352LfuxyWRWg1/yhT/nRE5IsZWuZtCSK8CPeI0e/hF+jV7AJM4PO7KWCyr390bSiNtEtQM=);strokeColor=#000000;strokeWidth=2;spacingTop=-3;spacingBottom=-3;spacingLeft=-3;spacingRight=-3;points=[];labelBackgroundColor=none;rounded=0;html=1;whiteSpace=wrap;" parent="1" vertex="1">
            <mxGeometry x="578" y="698" width="101" height="42" as="geometry" />
          </mxCell>
        </UserObject>
        <UserObject label="&lt;div style=&quot;font-size: 1px&quot;&gt;&lt;p style=&quot;text-align:center;margin-left:0;margin-right:0;margin-top:0px;margin-bottom:0px;text-indent:0;vertical-align:middle;direction:ltr;&quot;&gt;&lt;font style=&quot;font-size:12px;font-family:0;color:#000000;direction:ltr;letter-spacing:0px;line-height:120%;opacity:1&quot;&gt;即时通信&lt;/font&gt;&lt;/p&gt;&lt;/div&gt;" tags="Background" id="23">
          <mxCell style="verticalAlign=middle;align=center;overflow=width;vsdxID=22;fillColor=#FFFFFF;gradientColor=none;shape=stencil(nZBRDoQgDERP03+WHsHFe5iISyOCQdT19kIaIxq//Jtp3zTpAFaTaUYNUkwx+F6v1EYD+AUpyRkdKCYFqACrzgf9C352LfuxyWRWg1/yhT/nRE5IsZWuZtCSK8CPeI0e/hF+jV7AJM4PO7KWCyr390bSiNtEtQM=);strokeColor=#000000;strokeWidth=2;spacingTop=-3;spacingBottom=-3;spacingLeft=-3;spacingRight=-3;points=[];labelBackgroundColor=none;rounded=0;html=1;whiteSpace=wrap;" parent="1" vertex="1">
            <mxGeometry x="686" y="698" width="101" height="42" as="geometry" />
          </mxCell>
        </UserObject>
        <UserObject label="&lt;div style=&quot;font-size: 1px&quot;&gt;&lt;p style=&quot;text-align:center;margin-left:0;margin-right:0;margin-top:0px;margin-bottom:0px;text-indent:0;vertical-align:middle;direction:ltr;&quot;&gt;&lt;font style=&quot;font-size:12px;font-family:0;color:#000000;direction:ltr;letter-spacing:0px;line-height:120%;opacity:1&quot;&gt;北斗报文&lt;/font&gt;&lt;/p&gt;&lt;/div&gt;" tags="Background" id="24">
          <mxCell style="verticalAlign=middle;align=center;overflow=width;vsdxID=23;fillColor=#FFFFFF;gradientColor=none;shape=stencil(nZBRDoQgDERP03+WHsHFe5iISyOCQdT19kIaIxq//Jtp3zTpAFaTaUYNUkwx+F6v1EYD+AUpyRkdKCYFqACrzgf9C352LfuxyWRWg1/yhT/nRE5IsZWuZtCSK8CPeI0e/hF+jV7AJM4PO7KWCyr390bSiNtEtQM=);strokeColor=#000000;strokeWidth=2;spacingTop=-3;spacingBottom=-3;spacingLeft=-3;spacingRight=-3;points=[];labelBackgroundColor=none;rounded=0;html=1;whiteSpace=wrap;" parent="1" vertex="1">
            <mxGeometry x="796" y="698" width="101" height="42" as="geometry" />
          </mxCell>
        </UserObject>
        <UserObject label="&lt;div style=&quot;font-size: 1px&quot;&gt;&lt;p style=&quot;text-align:center;margin-left:0;margin-right:0;margin-top:0px;margin-bottom:0px;text-indent:0;vertical-align:middle;direction:ltr;&quot;&gt;&lt;font style=&quot;font-size:12px;font-family:0;color:#000000;direction:ltr;letter-spacing:0px;line-height:120%;opacity:1&quot;&gt;信息采集&lt;/font&gt;&lt;/p&gt;&lt;/div&gt;" tags="Background" id="25">
          <mxCell style="verticalAlign=middle;align=center;overflow=width;vsdxID=24;fillColor=#FFFFFF;gradientColor=none;shape=stencil(nZBRDoQgDERP03+WHsHFe5iISyOCQdT19kIaIxq//Jtp3zTpAFaTaUYNUkwx+F6v1EYD+AUpyRkdKCYFqACrzgf9C352LfuxyWRWg1/yhT/nRE5IsZWuZtCSK8CPeI0e/hF+jV7AJM4PO7KWCyr390bSiNtEtQM=);strokeColor=#000000;strokeWidth=2;spacingTop=-3;spacingBottom=-3;spacingLeft=-3;spacingRight=-3;points=[];labelBackgroundColor=none;rounded=0;html=1;whiteSpace=wrap;" parent="1" vertex="1">
            <mxGeometry x="906" y="698" width="101" height="42" as="geometry" />
          </mxCell>
        </UserObject>
        <UserObject label="&lt;div style=&quot;font-size: 1px&quot;&gt;&lt;p style=&quot;text-align:center;margin-left:0;margin-right:0;margin-top:0px;margin-bottom:0px;text-indent:0;vertical-align:middle;direction:ltr;&quot;&gt;&lt;font style=&quot;font-size:12px;font-family:0;color:#000000;direction:ltr;letter-spacing:0px;line-height:120%;opacity:1&quot;&gt;二三维地图引擎&lt;/font&gt;&lt;/p&gt;&lt;/div&gt;" tags="Background" id="26">
          <mxCell style="verticalAlign=middle;align=center;overflow=width;vsdxID=25;fillColor=#FFFFFF;gradientColor=none;shape=stencil(nZBRDoQgDERP03+WHsHFe5iISyOCQdT19kIaIxq//Jtp3zTpAFaTaUYNUkwx+F6v1EYD+AUpyRkdKCYFqACrzgf9C352LfuxyWRWg1/yhT/nRE5IsZWuZtCSK8CPeI0e/hF+jV7AJM4PO7KWCyr390bSiNtEtQM=);strokeColor=#000000;strokeWidth=2;spacingTop=-3;spacingBottom=-3;spacingLeft=-3;spacingRight=-3;points=[];labelBackgroundColor=none;rounded=0;html=1;whiteSpace=wrap;" parent="1" vertex="1">
            <mxGeometry x="356" y="777" width="210" height="42" as="geometry" />
          </mxCell>
        </UserObject>
        <UserObject label="&lt;div style=&quot;font-size: 1px&quot;&gt;&lt;p style=&quot;text-align:center;margin-left:0;margin-right:0;margin-top:0px;margin-bottom:0px;text-indent:0;vertical-align:middle;direction:ltr;&quot;&gt;&lt;font style=&quot;font-size:12px;font-family:0;color:#000000;direction:ltr;letter-spacing:0px;line-height:120%;opacity:1&quot;&gt;路径规划引擎&lt;/font&gt;&lt;/p&gt;&lt;/div&gt;" tags="Background" id="27">
          <mxCell style="verticalAlign=middle;align=center;overflow=width;vsdxID=26;fillColor=#FFFFFF;gradientColor=none;shape=stencil(nZBRDoQgDERP03+WHsHFe5iISyOCQdT19kIaIxq//Jtp3zTpAFaTaUYNUkwx+F6v1EYD+AUpyRkdKCYFqACrzgf9C352LfuxyWRWg1/yhT/nRE5IsZWuZtCSK8CPeI0e/hF+jV7AJM4PO7KWCyr390bSiNtEtQM=);strokeColor=#000000;strokeWidth=2;spacingTop=-3;spacingBottom=-3;spacingLeft=-3;spacingRight=-3;points=[];labelBackgroundColor=none;rounded=0;html=1;whiteSpace=wrap;" parent="1" vertex="1">
            <mxGeometry x="579" y="777" width="210" height="42" as="geometry" />
          </mxCell>
        </UserObject>
        <UserObject label="&lt;div style=&quot;font-size: 1px&quot;&gt;&lt;p style=&quot;text-align:center;margin-left:0;margin-right:0;margin-top:0px;margin-bottom:0px;text-indent:0;vertical-align:middle;direction:ltr;&quot;&gt;&lt;font style=&quot;font-size:12px;font-family:0;color:#000000;direction:ltr;letter-spacing:0px;line-height:120%;opacity:1&quot;&gt;即时消息通信引擎&lt;/font&gt;&lt;/p&gt;&lt;/div&gt;" tags="Background" id="28">
          <mxCell style="verticalAlign=middle;align=center;overflow=width;vsdxID=27;fillColor=#FFFFFF;gradientColor=none;shape=stencil(nZBRDoQgDERP03+WHsHFe5iISyOCQdT19kIaIxq//Jtp3zTpAFaTaUYNUkwx+F6v1EYD+AUpyRkdKCYFqACrzgf9C352LfuxyWRWg1/yhT/nRE5IsZWuZtCSK8CPeI0e/hF+jV7AJM4PO7KWCyr390bSiNtEtQM=);strokeColor=#000000;strokeWidth=2;spacingTop=-3;spacingBottom=-3;spacingLeft=-3;spacingRight=-3;points=[];labelBackgroundColor=none;rounded=0;html=1;whiteSpace=wrap;" parent="1" vertex="1">
            <mxGeometry x="799" y="777" width="210" height="42" as="geometry" />
          </mxCell>
        </UserObject>
        <UserObject label="&lt;div style=&quot;font-size: 1px&quot;&gt;&lt;p style=&quot;text-align:center;margin-left:0;margin-right:0;margin-top:0px;margin-bottom:0px;text-indent:0;vertical-align:middle;direction:ltr;&quot;&gt;&lt;font style=&quot;font-size:12px;font-family:0;color:#000000;direction:ltr;letter-spacing:0px;line-height:120%;opacity:1&quot;&gt;数据访问引擎&lt;/font&gt;&lt;/p&gt;&lt;/div&gt;" tags="Background" id="29">
          <mxCell style="verticalAlign=middle;align=center;overflow=width;vsdxID=28;fillColor=#FFFFFF;gradientColor=none;shape=stencil(nZBRDoQgDERP03+WHsHFe5iISyOCQdT19kIaIxq//Jtp3zTpAFaTaUYNUkwx+F6v1EYD+AUpyRkdKCYFqACrzgf9C352LfuxyWRWg1/yhT/nRE5IsZWuZtCSK8CPeI0e/hF+jV7AJM4PO7KWCyr390bSiNtEtQM=);strokeColor=#000000;strokeWidth=2;spacingTop=-3;spacingBottom=-3;spacingLeft=-3;spacingRight=-3;points=[];labelBackgroundColor=none;rounded=0;html=1;whiteSpace=wrap;" parent="1" vertex="1">
            <mxGeometry x="334" y="979" width="691" height="20" as="geometry" />
          </mxCell>
        </UserObject>
        <UserObject label="&lt;div style=&quot;font-size: 1px&quot;&gt;&lt;p style=&quot;text-align:center;margin-left:0;margin-right:0;margin-top:0px;margin-bottom:0px;text-indent:0;vertical-align:middle;direction:ltr;&quot;&gt;&lt;font style=&quot;font-size:12px;font-family:0;color:#000000;direction:ltr;letter-spacing:0px;line-height:120%;opacity:1&quot;&gt;地图信息数据&lt;/font&gt;&lt;/p&gt;&lt;/div&gt;" tags="Background" id="30">
          <mxCell style="verticalAlign=middle;align=center;overflow=width;vsdxID=29;fillColor=#FFFFFF;gradientColor=none;shape=stencil(nZPREoIgEEW/hsccYLXs2ew/nMRkMmlQy/4+iUxA0+ptF87uXa4rgqjKkwtDFFe1FCd242mdI9ghSnmZM8nrLkIQI4gyIdlRiqZMdX5JFKmis7iqDq2uI4EqofiuU/zM9poseGmQW9/b+J/hQyN1X/JqjInn9zwxC3BLJ5D3WQ/BWBZsZnJM50EO6065CuwJB3nqANR+AjhqsOjfnNP2N/nR6TD0yHrWaJP43+cvdEf2TSgv61qqXTDsbsaLQq++ee/uenek/xOIHw==);strokeColor=#000000;strokeWidth=2;spacingTop=-3;spacingBottom=-3;spacingLeft=-3;spacingRight=-3;points=[];labelBackgroundColor=none;rounded=0;html=1;whiteSpace=wrap;" parent="1" vertex="1">
            <mxGeometry x="341" y="1011" width="133" height="42" as="geometry" />
          </mxCell>
        </UserObject>
        <UserObject label="&lt;div style=&quot;font-size: 1px&quot;&gt;&lt;p style=&quot;text-align:center;margin-left:0;margin-right:0;margin-top:0px;margin-bottom:0px;text-indent:0;vertical-align:middle;direction:ltr;&quot;&gt;&lt;font style=&quot;font-size:12px;font-family:0;color:#000000;direction:ltr;letter-spacing:0px;line-height:120%;opacity:1&quot;&gt;北斗态势数据&lt;/font&gt;&lt;/p&gt;&lt;/div&gt;" tags="Background" id="31">
          <mxCell style="verticalAlign=middle;align=center;overflow=width;vsdxID=30;fillColor=#FFFFFF;gradientColor=none;shape=stencil(nZPREoIgEEW/hsccYLXs2ew/nMRkMmlQy/4+iUxA0+ptF87uXa4rgqjKkwtDFFe1FCd242mdI9ghSnmZM8nrLkIQI4gyIdlRiqZMdX5JFKmis7iqDq2uI4EqofiuU/zM9poseGmQW9/b+J/hQyN1X/JqjInn9zwxC3BLJ5D3WQ/BWBZsZnJM50EO6065CuwJB3nqANR+AjhqsOjfnNP2N/nR6TD0yHrWaJP43+cvdEf2TSgv61qqXTDsbsaLQq++ee/uenek/xOIHw==);strokeColor=#000000;strokeWidth=2;spacingTop=-3;spacingBottom=-3;spacingLeft=-3;spacingRight=-3;points=[];labelBackgroundColor=none;rounded=0;html=1;whiteSpace=wrap;" parent="1" vertex="1">
            <mxGeometry x="478" y="1011" width="133" height="42" as="geometry" />
          </mxCell>
        </UserObject>
        <UserObject label="&lt;div style=&quot;font-size: 1px&quot;&gt;&lt;p style=&quot;text-align:center;margin-left:0;margin-right:0;margin-top:0px;margin-bottom:0px;text-indent:0;vertical-align:middle;direction:ltr;&quot;&gt;&lt;font style=&quot;font-size:12px;font-family:0;color:#000000;direction:ltr;letter-spacing:0px;line-height:120%;opacity:1&quot;&gt;即时通信数据&lt;/font&gt;&lt;/p&gt;&lt;/div&gt;" tags="Background" id="32">
          <mxCell style="verticalAlign=middle;align=center;overflow=width;vsdxID=31;fillColor=#FFFFFF;gradientColor=none;shape=stencil(nZPREoIgEEW/hsccYLXs2ew/nMRkMmlQy/4+iUxA0+ptF87uXa4rgqjKkwtDFFe1FCd242mdI9ghSnmZM8nrLkIQI4gyIdlRiqZMdX5JFKmis7iqDq2uI4EqofiuU/zM9poseGmQW9/b+J/hQyN1X/JqjInn9zwxC3BLJ5D3WQ/BWBZsZnJM50EO6065CuwJB3nqANR+AjhqsOjfnNP2N/nR6TD0yHrWaJP43+cvdEf2TSgv61qqXTDsbsaLQq++ee/uenek/xOIHw==);strokeColor=#000000;strokeWidth=2;spacingTop=-3;spacingBottom=-3;spacingLeft=-3;spacingRight=-3;points=[];labelBackgroundColor=none;rounded=0;html=1;whiteSpace=wrap;" parent="1" vertex="1">
            <mxGeometry x="617" y="1011" width="133" height="42" as="geometry" />
          </mxCell>
        </UserObject>
        <UserObject label="&lt;div style=&quot;font-size: 1px&quot;&gt;&lt;p style=&quot;text-align:center;margin-left:0;margin-right:0;margin-top:0px;margin-bottom:0px;text-indent:0;vertical-align:middle;direction:ltr;&quot;&gt;&lt;font style=&quot;font-size:12px;font-family:0;color:#000000;direction:ltr;letter-spacing:0px;line-height:120%;opacity:1&quot;&gt;信息采集数据&lt;/font&gt;&lt;/p&gt;&lt;/div&gt;" tags="Background" id="33">
          <mxCell style="verticalAlign=middle;align=center;overflow=width;vsdxID=32;fillColor=#FFFFFF;gradientColor=none;shape=stencil(nZPREoIgEEW/hsccYLXs2ew/nMRkMmlQy/4+iUxA0+ptF87uXa4rgqjKkwtDFFe1FCd242mdI9ghSnmZM8nrLkIQI4gyIdlRiqZMdX5JFKmis7iqDq2uI4EqofiuU/zM9poseGmQW9/b+J/hQyN1X/JqjInn9zwxC3BLJ5D3WQ/BWBZsZnJM50EO6065CuwJB3nqANR+AjhqsOjfnNP2N/nR6TD0yHrWaJP43+cvdEf2TSgv61qqXTDsbsaLQq++ee/uenek/xOIHw==);strokeColor=#000000;strokeWidth=2;spacingTop=-3;spacingBottom=-3;spacingLeft=-3;spacingRight=-3;points=[];labelBackgroundColor=none;rounded=0;html=1;whiteSpace=wrap;" parent="1" vertex="1">
            <mxGeometry x="756" y="1011" width="133" height="42" as="geometry" />
          </mxCell>
        </UserObject>
        <UserObject label="&lt;div style=&quot;font-size: 1px&quot;&gt;&lt;p style=&quot;text-align:center;margin-left:0;margin-right:0;margin-top:0px;margin-bottom:0px;text-indent:0;vertical-align:middle;direction:ltr;&quot;&gt;&lt;font style=&quot;font-size:12px;font-family:0;color:#000000;direction:ltr;letter-spacing:0px;line-height:120%;opacity:1&quot;&gt;软件设置数据&lt;/font&gt;&lt;/p&gt;&lt;/div&gt;" tags="Background" id="34">
          <mxCell style="verticalAlign=middle;align=center;overflow=width;vsdxID=33;fillColor=#FFFFFF;gradientColor=none;shape=stencil(nZPREoIgEEW/hsccYLXs2ew/nMRkMmlQy/4+iUxA0+ptF87uXa4rgqjKkwtDFFe1FCd242mdI9ghSnmZM8nrLkIQI4gyIdlRiqZMdX5JFKmis7iqDq2uI4EqofiuU/zM9poseGmQW9/b+J/hQyN1X/JqjInn9zwxC3BLJ5D3WQ/BWBZsZnJM50EO6065CuwJB3nqANR+AjhqsOjfnNP2N/nR6TD0yHrWaJP43+cvdEf2TSgv61qqXTDsbsaLQq++ee/uenek/xOIHw==);strokeColor=#000000;strokeWidth=2;spacingTop=-3;spacingBottom=-3;spacingLeft=-3;spacingRight=-3;points=[];labelBackgroundColor=none;rounded=0;html=1;whiteSpace=wrap;" parent="1" vertex="1">
            <mxGeometry x="897" y="1011" width="133" height="42" as="geometry" />
          </mxCell>
        </UserObject>
        <UserObject label="&lt;div style=&quot;font-size: 1px&quot;&gt;&lt;p style=&quot;text-align:center;margin-left:0;margin-right:0;margin-top:0px;margin-bottom:0px;text-indent:0;vertical-align:middle;direction:ltr;&quot;&gt;&lt;font style=&quot;font-size:16px;font-family:0;color:#000000;direction:ltr;letter-spacing:0px;line-height:120%;opacity:1&quot;&gt;数&lt;br/&gt;&lt;/font&gt;&lt;font style=&quot;font-size:16px;font-family:0;color:#000000;direction:ltr;letter-spacing:0px;line-height:120%;opacity:1&quot;&gt;据&lt;br/&gt;&lt;/font&gt;&lt;font style=&quot;font-size:16px;font-family:0;color:#000000;direction:ltr;letter-spacing:0px;line-height:120%;opacity:1&quot;&gt;层&lt;/font&gt;&lt;/p&gt;&lt;/div&gt;" tags="Background" id="35">
          <mxCell style="verticalAlign=middle;align=center;overflow=width;vsdxID=34;fillColor=none;gradientColor=none;shape=stencil(nZBLDoAgDAVP0z3SIyjeg0SURgWD+Lu9EGL8xBW7N828Ji1gOWs5KeBs9s72aqPGa8AKOCejlSMfEqAALFvrVOfsYprEk4xmTKNd44Y99VhscHY8qU7iQOYhFixbvfhXzlZfYgj3hQG+54dReh2KEw==);strokeColor=none;strokeWidth=0;spacingTop=-3;spacingBottom=-3;spacingLeft=-3;spacingRight=-3;points=[];labelBackgroundColor=none;rounded=0;html=1;whiteSpace=wrap;" parent="1" vertex="1">
            <mxGeometry x="279" y="1002" width="101" height="60" as="geometry" />
          </mxCell>
        </UserObject>
        <UserObject label="&lt;div style=&quot;font-size: 1px&quot;&gt;&lt;p style=&quot;text-align:center;margin-left:0;margin-right:0;margin-top:0px;margin-bottom:0px;text-indent:0;vertical-align:middle;direction:ltr;&quot;&gt;&lt;font style=&quot;font-size:16px;font-family:0;color:#000000;direction:ltr;letter-spacing:0px;line-height:120%;opacity:1&quot;&gt;存&lt;br/&gt;&lt;/font&gt;&lt;font style=&quot;font-size:16px;font-family:0;color:#000000;direction:ltr;letter-spacing:0px;line-height:120%;opacity:1&quot;&gt;储&lt;br/&gt;&lt;/font&gt;&lt;font style=&quot;font-size:16px;font-family:0;color:#000000;direction:ltr;letter-spacing:0px;line-height:120%;opacity:1&quot;&gt;层&lt;/font&gt;&lt;/p&gt;&lt;/div&gt;" tags="Background" id="36">
          <mxCell style="verticalAlign=middle;align=center;overflow=width;vsdxID=35;fillColor=none;gradientColor=none;shape=stencil(nZBLDoAgDAVP0z3SIyjeg0SURgWD+Lu9EGL8xBW7N828Ji1gOWs5KeBs9s72aqPGa8AKOCejlSMfEqAALFvrVOfsYprEk4xmTKNd44Y99VhscHY8qU7iQOYhFixbvfhXzlZfYgj3hQG+54dReh2KEw==);strokeColor=none;strokeWidth=0;spacingTop=-3;spacingBottom=-3;spacingLeft=-3;spacingRight=-3;points=[];labelBackgroundColor=none;rounded=0;html=1;whiteSpace=wrap;" parent="1" vertex="1">
            <mxGeometry x="279" y="1067" width="101" height="60" as="geometry" />
          </mxCell>
        </UserObject>
        <UserObject label="&lt;div style=&quot;font-size: 1px&quot;&gt;&lt;p style=&quot;text-align:center;margin-left:0;margin-right:0;margin-top:0px;margin-bottom:0px;text-indent:0;vertical-align:middle;direction:ltr;&quot;&gt;&lt;font style=&quot;font-size:12px;font-family:0;color:#000000;direction:ltr;letter-spacing:0px;line-height:120%;opacity:1&quot;&gt;&lt;br/&gt;&lt;br/&gt;&lt;/font&gt;&lt;font style=&quot;font-size:12px;font-family:0;color:#000000;direction:ltr;letter-spacing:0px;line-height:120%;opacity:1&quot;&gt;&lt;br/&gt;&lt;/font&gt;&lt;font style=&quot;font-size:12px;font-family:0;color:#000000;direction:ltr;letter-spacing:0px;line-height:120%;opacity:1&quot;&gt;关系数据库&lt;/font&gt;&lt;/p&gt;&lt;/div&gt;" tags="Background" id="37">
          <mxCell style="verticalAlign=middle;align=center;overflow=width;vsdxID=36;fillColor=#FFFFFF;gradientColor=none;shape=stencil(nZPBDoIwDIafZkfJ1mqiZ8T3IDJkERkZoPj2Mgdhm5AFb233de3+tQTjpkhrToA2rZJ3/hJZWxA8EwBRFVyJdrAIJgTjXCp+U7KrMuPXqSa19ZBPfUNv8qjOAPo2HttHCN/IxcClqFbh48Emr50y9zKXHV1GDU17mAITAT6BPoFLBd3WZnjlJX5/c8IY2GF0Ym6PXoc2gS6Bf+j3A2/6mYDeCBFgQHGbWdN8u44LlcN1Q1UHY57gXJSlWQD73J/4IWS2BZMP);strokeColor=#000000;strokeWidth=2;spacingTop=-3;spacingBottom=-3;spacingLeft=-3;spacingRight=-3;points=[];labelBackgroundColor=none;rounded=0;html=1;whiteSpace=wrap;" parent="1" vertex="1">
            <mxGeometry x="410" y="1075" width="55" height="64" as="geometry" />
          </mxCell>
        </UserObject>
        <UserObject label="&lt;div style=&quot;font-size: 1px&quot;&gt;&lt;p style=&quot;text-align:center;margin-left:0;margin-right:0;margin-top:0px;margin-bottom:0px;text-indent:0;vertical-align:middle;direction:ltr;&quot;&gt;&lt;font style=&quot;font-size:12px;font-family:0;color:#000000;direction:ltr;letter-spacing:0px;line-height:120%;opacity:1&quot;&gt;&lt;br/&gt;&lt;br/&gt;&lt;/font&gt;&lt;font style=&quot;font-size:12px;font-family:0;color:#000000;direction:ltr;letter-spacing:0px;line-height:120%;opacity:1&quot;&gt;&lt;br/&gt;&lt;/font&gt;&lt;font style=&quot;font-size:12px;font-family:0;color:#000000;direction:ltr;letter-spacing:0px;line-height:120%;opacity:1&quot;&gt;键值对存储&lt;/font&gt;&lt;/p&gt;&lt;/div&gt;" tags="Background" id="38">
          <mxCell style="verticalAlign=middle;align=center;overflow=width;vsdxID=37;fillColor=#FFFFFF;gradientColor=none;shape=stencil(nZPBDoIwDIafZkfJ1mqiZ8T3IDJkERkZoPj2Mgdhm5AFb233de3+tQTjpkhrToA2rZJ3/hJZWxA8EwBRFVyJdrAIJgTjXCp+U7KrMuPXqSa19ZBPfUNv8qjOAPo2HttHCN/IxcClqFbh48Emr50y9zKXHV1GDU17mAITAT6BPoFLBd3WZnjlJX5/c8IY2GF0Ym6PXoc2gS6Bf+j3A2/6mYDeCBFgQHGbWdN8u44LlcN1Q1UHY57gXJSlWQD73J/4IWS2BZMP);strokeColor=#000000;strokeWidth=2;spacingTop=-3;spacingBottom=-3;spacingLeft=-3;spacingRight=-3;points=[];labelBackgroundColor=none;rounded=0;html=1;whiteSpace=wrap;" parent="1" vertex="1">
            <mxGeometry x="550" y="1075" width="55" height="64" as="geometry" />
          </mxCell>
        </UserObject>
        <UserObject label="&lt;div style=&quot;font-size: 1px&quot;&gt;&lt;p style=&quot;text-align:center;margin-left:0;margin-right:0;margin-top:0px;margin-bottom:0px;text-indent:0;vertical-align:middle;direction:ltr;&quot;&gt;&lt;font style=&quot;font-size:12px;font-family:0;color:#000000;direction:ltr;letter-spacing:0px;line-height:120%;opacity:1&quot;&gt;&lt;br/&gt;&lt;br/&gt;&lt;/font&gt;&lt;font style=&quot;font-size:12px;font-family:0;color:#000000;direction:ltr;letter-spacing:0px;line-height:120%;opacity:1&quot;&gt;缓存&lt;br/&gt;&lt;/font&gt;&lt;/p&gt;&lt;/div&gt;" tags="Background" id="39">
          <mxCell style="verticalAlign=middle;align=center;overflow=width;vsdxID=38;fillColor=#FFFFFF;gradientColor=none;shape=stencil(nZPBDoIwDIafZkfJtkLkjvgeRIYsIpAJim8vsxC2CVnw1nZf1+5fSyB5lFkrCKePTjU38ZJ5VxI4Ec5lXQolu9EikBJIikaJq2r6Oke/zTSprXvz1DcMmEd1Bqdv9FgU8PgbOSNcyXoTjiOTvPQK72U2O7mMIk0HPgdmgrsEuASsFbRbW+CNl7j9LQlT4BAG7Gj36HRoEmAT8Id+P/Cun/HoDWEAsUdxk9nSfL+OK5X9dX1VR2OZ4EJWFS6Aee5O/BjCbYH0Aw==);strokeColor=#000000;strokeWidth=2;spacingTop=-3;spacingBottom=-3;spacingLeft=-3;spacingRight=-3;points=[];labelBackgroundColor=none;rounded=0;html=1;whiteSpace=wrap;" parent="1" vertex="1">
            <mxGeometry x="695" y="1077" width="55" height="60" as="geometry" />
          </mxCell>
        </UserObject>
        <UserObject label="&lt;div style=&quot;font-size: 1px&quot;&gt;&lt;p style=&quot;text-align:center;margin-left:0;margin-right:0;margin-top:0px;margin-bottom:0px;text-indent:0;vertical-align:middle;direction:ltr;&quot;&gt;&lt;font style=&quot;font-size:12px;font-family:0;color:#000000;direction:ltr;letter-spacing:0px;line-height:120%;opacity:1&quot;&gt;&lt;br/&gt;&lt;br/&gt;&lt;/font&gt;&lt;font style=&quot;font-size:12px;font-family:0;color:#000000;direction:ltr;letter-spacing:0px;line-height:120%;opacity:1&quot;&gt;&lt;br/&gt;&lt;/font&gt;&lt;font style=&quot;font-size:12px;font-family:0;color:#000000;direction:ltr;letter-spacing:0px;line-height:120%;opacity:1&quot;&gt;对象存储&lt;br/&gt;&lt;/font&gt;&lt;/p&gt;&lt;/div&gt;" tags="Background" id="40">
          <mxCell style="verticalAlign=middle;align=center;overflow=width;vsdxID=39;fillColor=#FFFFFF;gradientColor=none;shape=stencil(nZPBDoIwDIafZkfJtkLkjvgeRIYsIpAJim8vsxC2CVnw1nZf1+5fSyB5lFkrCKePTjU38ZJ5VxI4Ec5lXQolu9EikBJIikaJq2r6Oke/zTSprXvz1DcMmEd1Bqdv9FgU8PgbOSNcyXoTjiOTvPQK72U2O7mMIk0HPgdmgrsEuASsFbRbW+CNl7j9LQlT4BAG7Gj36HRoEmAT8Id+P/Cun/HoDWEAsUdxk9nSfL+OK5X9dX1VR2OZ4EJWFS6Aee5O/BjCbYH0Aw==);strokeColor=#000000;strokeWidth=2;spacingTop=-3;spacingBottom=-3;spacingLeft=-3;spacingRight=-3;points=[];labelBackgroundColor=none;rounded=0;html=1;whiteSpace=wrap;" parent="1" vertex="1">
            <mxGeometry x="876" y="1077" width="55" height="60" as="geometry" />
          </mxCell>
        </UserObject>
        <UserObject label="&lt;div style=&quot;font-size: 1px&quot;&gt;&lt;p style=&quot;text-align:center;margin-left:0;margin-right:0;margin-top:0px;margin-bottom:0px;text-indent:0;vertical-align:middle;direction:ltr;&quot;&gt;&lt;font style=&quot;font-size:12px;font-family:0;color:#000000;direction:ltr;letter-spacing:0px;line-height:120%;opacity:1&quot;&gt;Android&lt;/font&gt;&lt;/p&gt;&lt;/div&gt;" tags="Background" id="41">
          <mxCell style="verticalAlign=middle;align=center;overflow=width;vsdxID=40;fillColor=none;gradientColor=none;image;aspect=fixed;image=data:image/png,iVBORw0KGgoAAAANSUhEUgAAACgAAABMCAYAAAAfm/UhAAAAAXNSR0IArs4c6QAAAehJREFUaEPtmr9OwlAUxu95GyOLf0iMRg28gYN0gMUHcNLFDbox6OQLOPgnKQy8gY0YjQmIC4a3ueZcuU2tJYTztcbhNCEppd/p19/9LtNHJnNsVQ87fMla287+VuL32D2TbPgxenbn/iB/wsb+2NSi943TRp3Bjep+jSw9lkho5dFEFL6PnjrO4Ob2AZurrTylZMFkPCT6j/SS/BGFJKUXNI7cnKg3MJXK2lKW0+ls6T05N8Rs0EqUaYP+fNGc6efMCA0asUHJS0k0alBC7ccftc/g3u4OOqtQ/cvrm5uXLHGrGZjzs9NCHyIddnl1be4fempQCtAoQTG6uVAJKkGUAKrXDCpBlACq1wwqQZQAqtcMKkGUAKrXDCpBlACq1wwqQZQAqtcMKkGUAKrXDCpBlACq1wwqQZQAqtcMKkGUAKrXDCpBlACq1wwqQZQAqtcMlkaw1WygswvR395Fv2sphUwuYUhh3S1uwFXWv2t6UX8gbrtl37EQg2wuW9HjXiF/0ENccEw/uB/d5Po4Dk5QfzGh7V9uX4bti1wj7bALLTUXbX3JVtTC9K5KIhhPxsO6M4hSzMsgSs+SrXPpOyl6z9vA3D4X1ZV5qZNdDG4O36FmeIlBv1wpo3xJZFayM9gU67jcndZ/AcZuM3O9bh0+AAAAAElFTkSuQmCC;strokeColor=none;strokeWidth=0;points=[];labelBackgroundColor=none;rounded=0;html=1;whiteSpace=wrap;" parent="1" vertex="1">
            <mxGeometry x="513" y="1206" width="38" height="76" as="geometry" />
          </mxCell>
        </UserObject>
        <UserObject label="" tags="Background" id="42">
          <mxCell style="vsdxID=41;fillColor=#FFFFFF;gradientColor=none;shape=stencil(nZBRDoQgDERP03+WHsHFe5iISyOCQdT19kIaIxq//Jtp3zTpAFaTaUYNUkwx+F6v1EYD+AUpyRkdKCYFqACrzgf9C352LfuxyWRWg1/yhT/nRE5IsZWuZtCSK8CPeI0e/hF+jV7AJM4PO7KWCyr390bSiNtEtQM=);dashed=1;strokeColor=#000000;strokeWidth=2;spacingTop=-3;spacingBottom=-3;spacingLeft=-3;spacingRight=-3;points=[];labelBackgroundColor=none;rounded=0;html=1;whiteSpace=wrap;" parent="1" vertex="1">
            <mxGeometry x="758" y="1187" width="267" height="137" as="geometry" />
          </mxCell>
        </UserObject>
        <UserObject label="&lt;div style=&quot;font-size: 1px&quot;&gt;&lt;p style=&quot;text-align:center;margin-left:0;margin-right:0;margin-top:0px;margin-bottom:0px;text-indent:0;vertical-align:middle;direction:ltr;&quot;&gt;&lt;font style=&quot;font-size:12px;font-family:0;color:#000000;direction:ltr;letter-spacing:0px;line-height:120%;opacity:1&quot;&gt;北斗便捷终端&lt;/font&gt;&lt;/p&gt;&lt;/div&gt;" tags="Background" id="43">
          <mxCell style="verticalAlign=middle;align=center;overflow=width;vsdxID=42;fillColor=none;gradientColor=none;shape=stencil(nZBLDoAgDAVP0z3SIyjeg0SURgWD+Lu9EGL8xBW7N828Ji1gOWs5KeBs9s72aqPGa8AKOCejlSMfEqAALFvrVOfsYprEk4xmTKNd44Y99VhscHY8qU7iQOYhFixbvfhXzlZfYgj3hQG+54dReh2KEw==);strokeColor=none;strokeWidth=0;spacingTop=-3;spacingBottom=-3;spacingLeft=-3;spacingRight=-3;points=[];labelBackgroundColor=none;rounded=0;html=1;whiteSpace=wrap;" parent="1" vertex="1">
            <mxGeometry x="840" y="1173" width="126" height="42" as="geometry" />
          </mxCell>
        </UserObject>
        <UserObject label="&lt;div style=&quot;font-size: 1px&quot;&gt;&lt;p style=&quot;text-align:center;margin-left:0;margin-right:0;margin-top:0px;margin-bottom:0px;text-indent:0;vertical-align:middle;direction:ltr;&quot;&gt;&lt;font style=&quot;font-size:12px;font-family:0;color:#000000;direction:ltr;letter-spacing:0px;line-height:120%;opacity:1&quot;&gt;RNSS定位&lt;/font&gt;&lt;/p&gt;&lt;/div&gt;" tags="Background" id="44">
          <mxCell style="verticalAlign=middle;align=center;overflow=width;vsdxID=43;fillColor=#FFFFFF;gradientColor=none;shape=stencil(nZBRDoQgDERP03+WHsHFe5iISyOCQdT19kIaIxq//Jtp3zTpAFaTaUYNUkwx+F6v1EYD+AUpyRkdKCYFqACrzgf9C352LfuxyWRWg1/yhT/nRE5IsZWuZtCSK8CPeI0e/hF+jV7AJM4PO7KWCyr390bSiNtEtQM=);strokeColor=#000000;strokeWidth=2;spacingTop=-3;spacingBottom=-3;spacingLeft=-3;spacingRight=-3;points=[];labelBackgroundColor=none;rounded=0;html=1;whiteSpace=wrap;" parent="1" vertex="1">
            <mxGeometry x="851" y="1202" width="29" height="108" as="geometry" />
          </mxCell>
        </UserObject>
        <UserObject label="&lt;div style=&quot;font-size: 1px&quot;&gt;&lt;p style=&quot;text-align:center;margin-left:0;margin-right:0;margin-top:0px;margin-bottom:0px;text-indent:0;vertical-align:middle;direction:ltr;&quot;&gt;&lt;font style=&quot;font-size:12px;font-family:0;color:#000000;direction:ltr;letter-spacing:0px;line-height:120%;opacity:1&quot;&gt;蓝牙通信控制&lt;/font&gt;&lt;/p&gt;&lt;/div&gt;" tags="Background" id="45">
          <mxCell style="verticalAlign=middle;align=center;overflow=width;vsdxID=44;fillColor=#FFFFFF;gradientColor=none;shape=stencil(nZBRDoQgDERP03+WHsHFe5iISyOCQdT19kIaIxq//Jtp3zTpAFaTaUYNUkwx+F6v1EYD+AUpyRkdKCYFqACrzgf9C352LfuxyWRWg1/yhT/nRE5IsZWuZtCSK8CPeI0e/hF+jV7AJM4PO7KWCyr390bSiNtEtQM=);strokeColor=#000000;strokeWidth=2;spacingTop=-3;spacingBottom=-3;spacingLeft=-3;spacingRight=-3;points=[];labelBackgroundColor=none;rounded=0;html=1;whiteSpace=wrap;" parent="1" vertex="1">
            <mxGeometry x="877" y="1202" width="29" height="108" as="geometry" />
          </mxCell>
        </UserObject>
        <UserObject label="&lt;div style=&quot;font-size: 1px&quot;&gt;&lt;p style=&quot;text-align:center;margin-left:0;margin-right:0;margin-top:0px;margin-bottom:0px;text-indent:0;vertical-align:middle;direction:ltr;&quot;&gt;&lt;font style=&quot;font-size:12px;font-family:0;color:#000000;direction:ltr;letter-spacing:0px;line-height:120%;opacity:1&quot;&gt;掩护形态&lt;/font&gt;&lt;/p&gt;&lt;/div&gt;" tags="Background" id="46">
          <mxCell style="verticalAlign=middle;align=center;overflow=width;vsdxID=45;fillColor=#FFFFFF;gradientColor=none;shape=stencil(nZBRDoQgDERP03+WHsHFe5iISyOCQdT19kIaIxq//Jtp3zTpAFaTaUYNUkwx+F6v1EYD+AUpyRkdKCYFqACrzgf9C352LfuxyWRWg1/yhT/nRE5IsZWuZtCSK8CPeI0e/hF+jV7AJM4PO7KWCyr390bSiNtEtQM=);strokeColor=#000000;strokeWidth=2;spacingTop=-3;spacingBottom=-3;spacingLeft=-3;spacingRight=-3;points=[];labelBackgroundColor=none;rounded=0;html=1;whiteSpace=wrap;" parent="1" vertex="1">
            <mxGeometry x="909" y="1202" width="29" height="108" as="geometry" />
          </mxCell>
        </UserObject>
        <UserObject label="&lt;div style=&quot;font-size: 1px&quot;&gt;&lt;p style=&quot;text-align:center;margin-left:0;margin-right:0;margin-top:0px;margin-bottom:0px;text-indent:0;vertical-align:middle;direction:ltr;&quot;&gt;&lt;font style=&quot;font-size:12px;font-family:0;color:#000000;direction:ltr;letter-spacing:0px;line-height:120%;opacity:1&quot;&gt;一键SOS&lt;/font&gt;&lt;/p&gt;&lt;/div&gt;" tags="Background" id="47">
          <mxCell style="verticalAlign=middle;align=center;overflow=width;vsdxID=46;fillColor=#FFFFFF;gradientColor=none;shape=stencil(nZBRDoQgDERP03+WHsHFe5iISyOCQdT19kIaIxq//Jtp3zTpAFaTaUYNUkwx+F6v1EYD+AUpyRkdKCYFqACrzgf9C352LfuxyWRWg1/yhT/nRE5IsZWuZtCSK8CPeI0e/hF+jV7AJM4PO7KWCyr390bSiNtEtQM=);strokeColor=#000000;strokeWidth=2;spacingTop=-3;spacingBottom=-3;spacingLeft=-3;spacingRight=-3;points=[];labelBackgroundColor=none;rounded=0;html=1;whiteSpace=wrap;" parent="1" vertex="1">
            <mxGeometry x="934" y="1202" width="29" height="108" as="geometry" />
          </mxCell>
        </UserObject>
        <UserObject label="&lt;div style=&quot;font-size: 1px&quot;&gt;&lt;p style=&quot;text-align:center;margin-left:0;margin-right:0;margin-top:0px;margin-bottom:0px;text-indent:0;vertical-align:middle;direction:ltr;&quot;&gt;&lt;font style=&quot;font-size:12px;font-family:0;color:#000000;direction:ltr;letter-spacing:0px;line-height:120%;opacity:1&quot;&gt;位置追踪&lt;/font&gt;&lt;/p&gt;&lt;/div&gt;" tags="Background" id="48">
          <mxCell style="verticalAlign=middle;align=center;overflow=width;vsdxID=47;fillColor=#FFFFFF;gradientColor=none;shape=stencil(nZBRDoQgDERP03+WHsHFe5iISyOCQdT19kIaIxq//Jtp3zTpAFaTaUYNUkwx+F6v1EYD+AUpyRkdKCYFqACrzgf9C352LfuxyWRWg1/yhT/nRE5IsZWuZtCSK8CPeI0e/hF+jV7AJM4PO7KWCyr390bSiNtEtQM=);strokeColor=#000000;strokeWidth=2;spacingTop=-3;spacingBottom=-3;spacingLeft=-3;spacingRight=-3;points=[];labelBackgroundColor=none;rounded=0;html=1;whiteSpace=wrap;" parent="1" vertex="1">
            <mxGeometry x="962" y="1202" width="29" height="108" as="geometry" />
          </mxCell>
        </UserObject>
        <UserObject label="&lt;div style=&quot;font-size: 1px&quot;&gt;&lt;p style=&quot;text-align:center;margin-left:0;margin-right:0;margin-top:0px;margin-bottom:0px;text-indent:0;vertical-align:middle;direction:ltr;&quot;&gt;&lt;font style=&quot;font-size:12px;font-family:0;color:#000000;direction:ltr;letter-spacing:0px;line-height:120%;opacity:1&quot;&gt;状态显示&lt;/font&gt;&lt;/p&gt;&lt;/div&gt;" tags="Background" id="49">
          <mxCell style="verticalAlign=middle;align=center;overflow=width;vsdxID=48;fillColor=#FFFFFF;gradientColor=none;shape=stencil(nZBRDoQgDERP03+WHsHFe5iISyOCQdT19kIaIxq//Jtp3zTpAFaTaUYNUkwx+F6v1EYD+AUpyRkdKCYFqACrzgf9C352LfuxyWRWg1/yhT/nRE5IsZWuZtCSK8CPeI0e/hF+jV7AJM4PO7KWCyr390bSiNtEtQM=);strokeColor=#000000;strokeWidth=2;spacingTop=-3;spacingBottom=-3;spacingLeft=-3;spacingRight=-3;points=[];labelBackgroundColor=none;rounded=0;html=1;whiteSpace=wrap;" parent="1" vertex="1">
            <mxGeometry x="989" y="1202" width="29" height="108" as="geometry" />
          </mxCell>
        </UserObject>
        <UserObject label="&lt;div style=&quot;font-size: 1px&quot;&gt;&lt;p style=&quot;text-align:center;margin-left:0;margin-right:0;margin-top:0px;margin-bottom:0px;text-indent:0;vertical-align:middle;direction:ltr;&quot;&gt;&lt;font style=&quot;font-size:12px;font-family:0;color:#000000;direction:ltr;letter-spacing:0px;line-height:120%;opacity:1&quot;&gt;区域短报文&lt;/font&gt;&lt;/p&gt;&lt;/div&gt;" tags="Background" id="50">
          <mxCell style="verticalAlign=middle;align=center;overflow=width;vsdxID=49;fillColor=#FFFFFF;gradientColor=none;shape=stencil(nZBRDoQgDERP03+WHsHFe5iISyOCQdT19kIaIxq//Jtp3zTpAFaTaUYNUkwx+F6v1EYD+AUpyRkdKCYFqACrzgf9C352LfuxyWRWg1/yhT/nRE5IsZWuZtCSK8CPeI0e/hF+jV7AJM4PO7KWCyr390bSiNtEtQM=);strokeColor=#000000;strokeWidth=2;spacingTop=-3;spacingBottom=-3;spacingLeft=-3;spacingRight=-3;points=[];labelBackgroundColor=none;rounded=0;html=1;whiteSpace=wrap;" parent="1" vertex="1">
            <mxGeometry x="824" y="1202" width="29" height="108" as="geometry" />
          </mxCell>
        </UserObject>
        <UserObject label="&lt;div style=&quot;font-size: 1px&quot;&gt;&lt;p style=&quot;text-align:center;margin-left:0;margin-right:0;margin-top:0px;margin-bottom:0px;text-indent:0;vertical-align:middle;direction:ltr;&quot;&gt;&lt;font style=&quot;font-size:12px;font-family:0;color:#000000;direction:ltr;letter-spacing:0px;line-height:120%;opacity:1&quot;&gt;全球短报文&lt;/font&gt;&lt;/p&gt;&lt;/div&gt;" tags="Background" id="51">
          <mxCell style="verticalAlign=middle;align=center;overflow=width;vsdxID=50;fillColor=#FFFFFF;gradientColor=none;shape=stencil(nZBRDoQgDERP03+WHsHFe5iISyOCQdT19kIaIxq//Jtp3zTpAFaTaUYNUkwx+F6v1EYD+AUpyRkdKCYFqACrzgf9C352LfuxyWRWg1/yhT/nRE5IsZWuZtCSK8CPeI0e/hF+jV7AJM4PO7KWCyr390bSiNtEtQM=);strokeColor=#000000;strokeWidth=2;spacingTop=-3;spacingBottom=-3;spacingLeft=-3;spacingRight=-3;points=[];labelBackgroundColor=none;rounded=0;html=1;whiteSpace=wrap;" parent="1" vertex="1">
            <mxGeometry x="795" y="1202" width="29" height="108" as="geometry" />
          </mxCell>
        </UserObject>
        <UserObject label="&lt;div style=&quot;font-size: 1px&quot;&gt;&lt;p style=&quot;text-align:center;margin-left:0;margin-right:0;margin-top:0px;margin-bottom:0px;text-indent:0;vertical-align:middle;direction:ltr;&quot;&gt;&lt;font style=&quot;font-size:12px;font-family:0;color:#000000;direction:ltr;letter-spacing:0px;line-height:120%;opacity:1&quot;&gt;对外充电&lt;/font&gt;&lt;/p&gt;&lt;/div&gt;" tags="Background" id="52">
          <mxCell style="verticalAlign=middle;align=center;overflow=width;vsdxID=51;fillColor=#FFFFFF;gradientColor=none;shape=stencil(nZBRDoQgDERP03+WHsHFe5iISyOCQdT19kIaIxq//Jtp3zTpAFaTaUYNUkwx+F6v1EYD+AUpyRkdKCYFqACrzgf9C352LfuxyWRWg1/yhT/nRE5IsZWuZtCSK8CPeI0e/hF+jV7AJM4PO7KWCyr390bSiNtEtQM=);strokeColor=#000000;strokeWidth=2;spacingTop=-3;spacingBottom=-3;spacingLeft=-3;spacingRight=-3;points=[];labelBackgroundColor=none;rounded=0;html=1;whiteSpace=wrap;" parent="1" vertex="1">
            <mxGeometry x="773" y="1202" width="29" height="108" as="geometry" />
          </mxCell>
        </UserObject>
        <UserObject label="" tags="Background" id="53">
          <mxCell style="vsdxID=52;fillColor=#FFFFFF;gradientColor=none;shape=stencil(nZBRDoQgDERP03+WHsHFe5iISyOCQdT19kIaIxq//Jtp3zTpAFaTaUYNUkwx+F6v1EYD+AUpyRkdKCYFqACrzgf9C352LfuxyWRWg1/yhT/nRE5IsZWuZtCSK8CPeI0e/hF+jV7AJM4PO7KWCyr390bSiNtEtQM=);strokeColor=#000000;strokeWidth=2;spacingTop=-3;spacingBottom=-3;spacingLeft=-3;spacingRight=-3;points=[];labelBackgroundColor=none;rounded=0;html=1;whiteSpace=wrap;" parent="1" vertex="1">
            <mxGeometry x="280" y="848" width="758" height="112" as="geometry" />
          </mxCell>
        </UserObject>
        <UserObject label="&lt;div style=&quot;font-size: 1px&quot;&gt;&lt;p style=&quot;text-align:center;margin-left:0;margin-right:0;margin-top:0px;margin-bottom:0px;text-indent:0;vertical-align:middle;direction:ltr;&quot;&gt;&lt;font style=&quot;font-size:16px;font-family:0;color:#000000;direction:ltr;letter-spacing:0px;line-height:120%;opacity:1&quot;&gt;通&lt;br/&gt;&lt;/font&gt;&lt;font style=&quot;font-size:16px;font-family:0;color:#000000;direction:ltr;letter-spacing:0px;line-height:120%;opacity:1&quot;&gt;讯&lt;br/&gt;&lt;/font&gt;&lt;font style=&quot;font-size:16px;font-family:0;color:#000000;direction:ltr;letter-spacing:0px;line-height:120%;opacity:1&quot;&gt;层&lt;/font&gt;&lt;/p&gt;&lt;/div&gt;" tags="Background" id="54">
          <mxCell style="verticalAlign=middle;align=center;overflow=width;vsdxID=53;fillColor=none;gradientColor=none;shape=stencil(nZBLDoAgDAVP0z3SIyjeg0SURgWD+Lu9EGL8xBW7N828Ji1gOWs5KeBs9s72aqPGa8AKOCejlSMfEqAALFvrVOfsYprEk4xmTKNd44Y99VhscHY8qU7iQOYhFixbvfhXzlZfYgj3hQG+54dReh2KEw==);strokeColor=none;strokeWidth=0;spacingTop=-3;spacingBottom=-3;spacingLeft=-3;spacingRight=-3;points=[];labelBackgroundColor=none;rounded=0;html=1;whiteSpace=wrap;" parent="1" vertex="1">
            <mxGeometry x="249" y="877" width="101" height="60" as="geometry" />
          </mxCell>
        </UserObject>
        <UserObject label="&lt;div style=&quot;font-size: 1px&quot;&gt;&lt;p style=&quot;text-align:center;margin-left:0;margin-right:0;margin-top:0px;margin-bottom:0px;text-indent:0;vertical-align:middle;direction:ltr;&quot;&gt;&lt;font style=&quot;font-size:12px;font-family:0;color:#000000;direction:ltr;letter-spacing:0px;line-height:120%;opacity:1&quot;&gt;HTTP&lt;/font&gt;&lt;/p&gt;&lt;/div&gt;" tags="Background" id="55">
          <mxCell style="verticalAlign=middle;align=center;overflow=width;vsdxID=54;fillColor=#FFFFFF;gradientColor=none;shape=stencil(nZBRDoQgDERP03+WHsHFe5iISyOCQdT19kIaIxq//Jtp3zTpAFaTaUYNUkwx+F6v1EYD+AUpyRkdKCYFqACrzgf9C352LfuxyWRWg1/yhT/nRE5IsZWuZtCSK8CPeI0e/hF+jV7AJM4PO7KWCyr390bSiNtEtQM=);strokeColor=#000000;strokeWidth=2;spacingTop=-3;spacingBottom=-3;spacingLeft=-3;spacingRight=-3;points=[];labelBackgroundColor=none;rounded=0;html=1;whiteSpace=wrap;" parent="1" vertex="1">
            <mxGeometry x="334" y="885" width="101" height="42" as="geometry" />
          </mxCell>
        </UserObject>
        <UserObject label="&lt;div style=&quot;font-size: 1px&quot;&gt;&lt;p style=&quot;text-align:center;margin-left:0;margin-right:0;margin-top:0px;margin-bottom:0px;text-indent:0;vertical-align:middle;direction:ltr;&quot;&gt;&lt;font style=&quot;font-size:12px;font-family:0;color:#000000;direction:ltr;letter-spacing:0px;line-height:120%;opacity:1&quot;&gt;北斗报文&lt;/font&gt;&lt;/p&gt;&lt;/div&gt;" tags="Background" id="56">
          <mxCell style="verticalAlign=middle;align=center;overflow=width;vsdxID=55;fillColor=#FFFFFF;gradientColor=none;shape=stencil(nZBRDoQgDERP03+WHsHFe5iISyOCQdT19kIaIxq//Jtp3zTpAFaTaUYNUkwx+F6v1EYD+AUpyRkdKCYFqACrzgf9C352LfuxyWRWg1/yhT/nRE5IsZWuZtCSK8CPeI0e/hF+jV7AJM4PO7KWCyr390bSiNtEtQM=);strokeColor=#000000;strokeWidth=2;spacingTop=-3;spacingBottom=-3;spacingLeft=-3;spacingRight=-3;points=[];labelBackgroundColor=none;rounded=0;html=1;whiteSpace=wrap;" parent="1" vertex="1">
            <mxGeometry x="578" y="885" width="101" height="42" as="geometry" />
          </mxCell>
        </UserObject>
        <UserObject label="&lt;div style=&quot;font-size: 1px&quot;&gt;&lt;p style=&quot;text-align:center;margin-left:0;margin-right:0;margin-top:0px;margin-bottom:0px;text-indent:0;vertical-align:middle;direction:ltr;&quot;&gt;&lt;font style=&quot;font-size:12px;font-family:0;color:#000000;direction:ltr;letter-spacing:0px;line-height:120%;opacity:1&quot;&gt;MQTT&lt;/font&gt;&lt;/p&gt;&lt;/div&gt;" tags="Background" id="57">
          <mxCell style="verticalAlign=middle;align=center;overflow=width;vsdxID=56;fillColor=#FFFFFF;gradientColor=none;shape=stencil(nZBRDoQgDERP03+WHsHFe5iISyOCQdT19kIaIxq//Jtp3zTpAFaTaUYNUkwx+F6v1EYD+AUpyRkdKCYFqACrzgf9C352LfuxyWRWg1/yhT/nRE5IsZWuZtCSK8CPeI0e/hF+jV7AJM4PO7KWCyr390bSiNtEtQM=);strokeColor=#000000;strokeWidth=2;spacingTop=-3;spacingBottom=-3;spacingLeft=-3;spacingRight=-3;points=[];labelBackgroundColor=none;rounded=0;html=1;whiteSpace=wrap;" parent="1" vertex="1">
            <mxGeometry x="454" y="885" width="101" height="42" as="geometry" />
          </mxCell>
        </UserObject>
        <UserObject label="&lt;div style=&quot;font-size: 1px&quot;&gt;&lt;p style=&quot;text-align:center;margin-left:0;margin-right:0;margin-top:0px;margin-bottom:0px;text-indent:0;vertical-align:middle;direction:ltr;&quot;&gt;&lt;font style=&quot;font-size:12px;font-family:0;color:#000000;direction:ltr;letter-spacing:0px;line-height:120%;opacity:1&quot;&gt;Harmony&lt;/font&gt;&lt;/p&gt;&lt;/div&gt;" tags="Background" id="59">
          <mxCell style="verticalAlign=middle;align=center;overflow=width;vsdxID=58;fillColor=none;gradientColor=none;image;aspect=fixed;image=data:image/png,iVBORw0KGgoAAAANSUhEUgAAACgAAABMCAYAAAAfm/UhAAAAAXNSR0IArs4c6QAAAehJREFUaEPtmr9OwlAUxu95GyOLf0iMRg28gYN0gMUHcNLFDbox6OQLOPgnKQy8gY0YjQmIC4a3ueZcuU2tJYTztcbhNCEppd/p19/9LtNHJnNsVQ87fMla287+VuL32D2TbPgxenbn/iB/wsb+2NSi943TRp3Bjep+jSw9lkho5dFEFL6PnjrO4Ob2AZurrTylZMFkPCT6j/SS/BGFJKUXNI7cnKg3MJXK2lKW0+ls6T05N8Rs0EqUaYP+fNGc6efMCA0asUHJS0k0alBC7ccftc/g3u4OOqtQ/cvrm5uXLHGrGZjzs9NCHyIddnl1be4fempQCtAoQTG6uVAJKkGUAKrXDCpBlACq1wwqQZQAqtcMKkGUAKrXDCpBlACq1wwqQZQAqtcMKkGUAKrXDCpBlACq1wwqQZQAqtcMKkGUAKrXDCpBlACq1wwqQZQAqtcMlkaw1WygswvR395Fv2sphUwuYUhh3S1uwFXWv2t6UX8gbrtl37EQg2wuW9HjXiF/0ENccEw/uB/d5Po4Dk5QfzGh7V9uX4bti1wj7bALLTUXbX3JVtTC9K5KIhhPxsO6M4hSzMsgSs+SrXPpOyl6z9vA3D4X1ZV5qZNdDG4O36FmeIlBv1wpo3xJZFayM9gU67jcndZ/AcZuM3O9bh0+AAAAAElFTkSuQmCC;strokeColor=none;strokeWidth=0;points=[];labelBackgroundColor=none;rounded=0;html=1;whiteSpace=wrap;" parent="1" vertex="1">
            <mxGeometry x="622" y="1206" width="38" height="76" as="geometry" />
          </mxCell>
        </UserObject>
        <UserObject label="&lt;div style=&quot;font-size: 1px&quot;&gt;&lt;p style=&quot;text-align:center;margin-left:0;margin-right:0;margin-top:0px;margin-bottom:0px;text-indent:0;vertical-align:middle;direction:ltr;&quot;&gt;&lt;font style=&quot;font-size:12px;font-family:0;color:#000000;direction:ltr;letter-spacing:0px;line-height:120%;opacity:1&quot;&gt;第三方推送SDK&lt;/font&gt;&lt;/p&gt;&lt;/div&gt;" tags="Background" id="60">
          <mxCell style="verticalAlign=middle;align=center;overflow=width;vsdxID=59;fillColor=#FFFFFF;gradientColor=none;shape=stencil(nZBRDoQgDERP03+WHsHFe5iISyOCQdT19kIaIxq//Jtp3zTpAFaTaUYNUkwx+F6v1EYD+AUpyRkdKCYFqACrzgf9C352LfuxyWRWg1/yhT/nRE5IsZWuZtCSK8CPeI0e/hF+jV7AJM4PO7KWCyr390bSiNtEtQM=);strokeColor=#000000;strokeWidth=2;spacingTop=-3;spacingBottom=-3;spacingLeft=-3;spacingRight=-3;points=[];labelBackgroundColor=none;rounded=0;html=1;whiteSpace=wrap;" parent="1" vertex="1">
            <mxGeometry x="695" y="885" width="133" height="42" as="geometry" />
          </mxCell>
        </UserObject>
        <UserObject label="&lt;div style=&quot;font-size: 1px&quot;&gt;&lt;p style=&quot;text-align:center;margin-left:0;margin-right:0;margin-top:0px;margin-bottom:0px;text-indent:0;vertical-align:middle;direction:ltr;&quot;&gt;&lt;font style=&quot;font-size:12px;font-family:0;color:#000000;direction:ltr;letter-spacing:0px;line-height:120%;opacity:1&quot;&gt;蓝牙通讯SDK&lt;/font&gt;&lt;/p&gt;&lt;/div&gt;" tags="Background" id="61">
          <mxCell style="verticalAlign=middle;align=center;overflow=width;vsdxID=60;fillColor=#FFFFFF;gradientColor=none;shape=stencil(nZBRDoQgDERP03+WHsHFe5iISyOCQdT19kIaIxq//Jtp3zTpAFaTaUYNUkwx+F6v1EYD+AUpyRkdKCYFqACrzgf9C352LfuxyWRWg1/yhT/nRE5IsZWuZtCSK8CPeI0e/hF+jV7AJM4PO7KWCyr390bSiNtEtQM=);strokeColor=#000000;strokeWidth=2;spacingTop=-3;spacingBottom=-3;spacingLeft=-3;spacingRight=-3;points=[];labelBackgroundColor=none;rounded=0;html=1;whiteSpace=wrap;" parent="1" vertex="1">
            <mxGeometry x="837" y="885" width="133" height="42" as="geometry" />
          </mxCell>
        </UserObject>
        <UserObject label="&lt;div style=&quot;font-size: 1px&quot;&gt;&lt;p style=&quot;text-align:center;margin-left:0;margin-right:0;margin-top:0px;margin-bottom:0px;text-indent:0;vertical-align:middle;direction:ltr;&quot;&gt;&lt;font style=&quot;font-size:12px;font-family:0;color:#000000;direction:ltr;letter-spacing:0px;line-height:120%;opacity:1&quot;&gt;地&lt;br/&gt;&lt;/font&gt;&lt;font style=&quot;font-size:12px;font-family:0;color:#000000;direction:ltr;letter-spacing:0px;line-height:120%;opacity:1&quot;&gt;图&lt;br/&gt;&lt;/font&gt;&lt;font style=&quot;font-size:12px;font-family:0;color:#000000;direction:ltr;letter-spacing:0px;line-height:120%;opacity:1&quot;&gt;导&lt;br/&gt;&lt;/font&gt;&lt;font style=&quot;font-size:12px;font-family:0;color:#000000;direction:ltr;letter-spacing:0px;line-height:120%;opacity:1&quot;&gt;航&lt;/font&gt;&lt;/p&gt;&lt;/div&gt;" tags="Background" id="62">
          <mxCell style="verticalAlign=middle;align=center;overflow=width;vsdxID=61;fillColor=#FFFFFF;gradientColor=none;shape=stencil(nZBRDoQgDERP03+WHsHFe5iISyOCQdT19kIaIxq//Jtp3zTpAFaTaUYNUkwx+F6v1EYD+AUpyRkdKCYFqACrzgf9C352LfuxyWRWg1/yhT/nRE5IsZWuZtCSK8CPeI0e/hF+jV7AJM4PO7KWCyr390bSiNtEtQM=);strokeColor=#000000;strokeWidth=2;spacingTop=-3;spacingBottom=-3;spacingLeft=-3;spacingRight=-3;points=[];labelBackgroundColor=none;rounded=0;html=1;whiteSpace=wrap;" parent="1" vertex="1">
            <mxGeometry x="622" y="533" width="38" height="108" as="geometry" />
          </mxCell>
        </UserObject>
        <UserObject label="&lt;div style=&quot;font-size: 1px&quot;&gt;&lt;p style=&quot;text-align:center;margin-left:0;margin-right:0;margin-top:0px;margin-bottom:0px;text-indent:0;vertical-align:middle;direction:ltr;&quot;&gt;&lt;font style=&quot;font-size:12px;font-family:0;color:#000000;direction:ltr;letter-spacing:0px;line-height:120%;opacity:1&quot;&gt;即时通讯&lt;/font&gt;&lt;/p&gt;&lt;/div&gt;" tags="Background" id="63">
          <mxCell style="verticalAlign=middle;align=center;overflow=width;vsdxID=62;fillColor=#FFFFFF;gradientColor=none;shape=stencil(nZBRDoQgDERP03+WHsHFe5iISyOCQdT19kIaIxq//Jtp3zTpAFaTaUYNUkwx+F6v1EYD+AUpyRkdKCYFqACrzgf9C352LfuxyWRWg1/yhT/nRE5IsZWuZtCSK8CPeI0e/hF+jV7AJM4PO7KWCyr390bSiNtEtQM=);strokeColor=#000000;strokeWidth=2;spacingTop=-3;spacingBottom=-3;spacingLeft=-3;spacingRight=-3;points=[];labelBackgroundColor=none;rounded=0;html=1;whiteSpace=wrap;" parent="1" vertex="1">
            <mxGeometry x="457" y="533" width="38" height="108" as="geometry" />
          </mxCell>
        </UserObject>
        <UserObject label="&lt;div style=&quot;font-size: 1px&quot;&gt;&lt;p style=&quot;text-align:center;margin-left:0;margin-right:0;margin-top:0px;margin-bottom:0px;text-indent:0;vertical-align:middle;direction:ltr;&quot;&gt;&lt;font style=&quot;font-size:12px;font-family:0;color:#000000;direction:ltr;letter-spacing:0px;line-height:120%;opacity:1&quot;&gt;通话视频&lt;/font&gt;&lt;/p&gt;&lt;/div&gt;" tags="Background" id="64">
          <mxCell style="verticalAlign=middle;align=center;overflow=width;vsdxID=63;fillColor=#FFFFFF;gradientColor=none;shape=stencil(nZBRDoQgDERP03+WHsHFe5iISyOCQdT19kIaIxq//Jtp3zTpAFaTaUYNUkwx+F6v1EYD+AUpyRkdKCYFqACrzgf9C352LfuxyWRWg1/yhT/nRE5IsZWuZtCSK8CPeI0e/hF+jV7AJM4PO7KWCyr390bSiNtEtQM=);strokeColor=#000000;strokeWidth=2;spacingTop=-3;spacingBottom=-3;spacingLeft=-3;spacingRight=-3;points=[];labelBackgroundColor=none;rounded=0;html=1;whiteSpace=wrap;" parent="1" vertex="1">
            <mxGeometry x="569" y="533" width="38" height="108" as="geometry" />
          </mxCell>
        </UserObject>
        <UserObject label="&lt;div style=&quot;font-size: 1px&quot;&gt;&lt;p style=&quot;text-align:center;margin-left:0;margin-right:0;margin-top:0px;margin-bottom:0px;text-indent:0;vertical-align:middle;direction:ltr;&quot;&gt;&lt;font style=&quot;font-size:12px;font-family:0;color:#000000;direction:ltr;letter-spacing:0px;line-height:120%;opacity:1&quot;&gt;地&lt;br/&gt;&lt;/font&gt;&lt;font style=&quot;font-size:12px;font-family:0;color:#000000;direction:ltr;letter-spacing:0px;line-height:120%;opacity:1&quot;&gt;图&lt;br/&gt;&lt;/font&gt;&lt;font style=&quot;font-size:12px;font-family:0;color:#000000;direction:ltr;letter-spacing:0px;line-height:120%;opacity:1&quot;&gt;量算&lt;/font&gt;&lt;/p&gt;&lt;/div&gt;" tags="Background" id="65">
          <mxCell style="verticalAlign=middle;align=center;overflow=width;vsdxID=64;fillColor=#FFFFFF;gradientColor=none;shape=stencil(nZBRDoQgDERP03+WHsHFe5iISyOCQdT19kIaIxq//Jtp3zTpAFaTaUYNUkwx+F6v1EYD+AUpyRkdKCYFqACrzgf9C352LfuxyWRWg1/yhT/nRE5IsZWuZtCSK8CPeI0e/hF+jV7AJM4PO7KWCyr390bSiNtEtQM=);strokeColor=#000000;strokeWidth=2;spacingTop=-3;spacingBottom=-3;spacingLeft=-3;spacingRight=-3;points=[];labelBackgroundColor=none;rounded=0;html=1;whiteSpace=wrap;" parent="1" vertex="1">
            <mxGeometry x="673" y="533" width="38" height="108" as="geometry" />
          </mxCell>
        </UserObject>
        <UserObject label="&lt;div style=&quot;font-size: 1px&quot;&gt;&lt;p style=&quot;text-align:center;margin-left:0;margin-right:0;margin-top:0px;margin-bottom:0px;text-indent:0;vertical-align:middle;direction:ltr;&quot;&gt;&lt;font style=&quot;font-size:12px;font-family:0;color:#000000;direction:ltr;letter-spacing:0px;line-height:120%;opacity:1&quot;&gt;位置报告&lt;/font&gt;&lt;/p&gt;&lt;/div&gt;" tags="Background" id="66">
          <mxCell style="verticalAlign=middle;align=center;overflow=width;vsdxID=65;fillColor=#FFFFFF;gradientColor=none;shape=stencil(nZBRDoQgDERP03+WHsHFe5iISyOCQdT19kIaIxq//Jtp3zTpAFaTaUYNUkwx+F6v1EYD+AUpyRkdKCYFqACrzgf9C352LfuxyWRWg1/yhT/nRE5IsZWuZtCSK8CPeI0e/hF+jV7AJM4PO7KWCyr390bSiNtEtQM=);strokeColor=#000000;strokeWidth=2;spacingTop=-3;spacingBottom=-3;spacingLeft=-3;spacingRight=-3;points=[];labelBackgroundColor=none;rounded=0;html=1;whiteSpace=wrap;" parent="1" vertex="1">
            <mxGeometry x="722" y="533" width="38" height="108" as="geometry" />
          </mxCell>
        </UserObject>
        <UserObject label="&lt;div style=&quot;font-size: 1px&quot;&gt;&lt;p style=&quot;text-align:center;margin-left:0;margin-right:0;margin-top:0px;margin-bottom:0px;text-indent:0;vertical-align:middle;direction:ltr;&quot;&gt;&lt;font style=&quot;font-size:12px;font-family:0;color:#000000;direction:ltr;letter-spacing:0px;line-height:120%;opacity:1&quot;&gt;离线地图&lt;/font&gt;&lt;/p&gt;&lt;/div&gt;" tags="Background" id="67">
          <mxCell style="verticalAlign=middle;align=center;overflow=width;vsdxID=66;fillColor=#FFFFFF;gradientColor=none;shape=stencil(nZBRDoQgDERP03+WHsHFe5iISyOCQdT19kIaIxq//Jtp3zTpAFaTaUYNUkwx+F6v1EYD+AUpyRkdKCYFqACrzgf9C352LfuxyWRWg1/yhT/nRE5IsZWuZtCSK8CPeI0e/hF+jV7AJM4PO7KWCyr390bSiNtEtQM=);strokeColor=#000000;strokeWidth=2;spacingTop=-3;spacingBottom=-3;spacingLeft=-3;spacingRight=-3;points=[];labelBackgroundColor=none;rounded=0;html=1;whiteSpace=wrap;" parent="1" vertex="1">
            <mxGeometry x="769" y="533" width="38" height="108" as="geometry" />
          </mxCell>
        </UserObject>
        <UserObject label="&lt;div style=&quot;font-size: 1px&quot;&gt;&lt;p style=&quot;text-align:center;margin-left:0;margin-right:0;margin-top:0px;margin-bottom:0px;text-indent:0;vertical-align:middle;direction:ltr;&quot;&gt;&lt;font style=&quot;font-size:12px;font-family:0;color:#000000;direction:ltr;letter-spacing:0px;line-height:120%;opacity:1&quot;&gt;北斗态势&lt;/font&gt;&lt;/p&gt;&lt;/div&gt;" tags="Background" id="68">
          <mxCell style="verticalAlign=middle;align=center;overflow=width;vsdxID=67;fillColor=#FFFFFF;gradientColor=none;shape=stencil(nZBRDoQgDERP03+WHsHFe5iISyOCQdT19kIaIxq//Jtp3zTpAFaTaUYNUkwx+F6v1EYD+AUpyRkdKCYFqACrzgf9C352LfuxyWRWg1/yhT/nRE5IsZWuZtCSK8CPeI0e/hF+jV7AJM4PO7KWCyr390bSiNtEtQM=);strokeColor=#000000;strokeWidth=2;spacingTop=-3;spacingBottom=-3;spacingLeft=-3;spacingRight=-3;points=[];labelBackgroundColor=none;rounded=0;html=1;whiteSpace=wrap;" parent="1" vertex="1">
            <mxGeometry x="820" y="533" width="38" height="108" as="geometry" />
          </mxCell>
        </UserObject>
        <UserObject label="&lt;div style=&quot;font-size: 1px&quot;&gt;&lt;p style=&quot;text-align:center;margin-left:0;margin-right:0;margin-top:0px;margin-bottom:0px;text-indent:0;vertical-align:middle;direction:ltr;&quot;&gt;&lt;font style=&quot;font-size:12px;font-family:0;color:#000000;direction:ltr;letter-spacing:0px;line-height:120%;opacity:1&quot;&gt;应急呼救&lt;/font&gt;&lt;/p&gt;&lt;/div&gt;" tags="Background" id="69">
          <mxCell style="verticalAlign=middle;align=center;overflow=width;vsdxID=68;fillColor=#FFFFFF;gradientColor=none;shape=stencil(nZBRDoQgDERP03+WHsHFe5iISyOCQdT19kIaIxq//Jtp3zTpAFaTaUYNUkwx+F6v1EYD+AUpyRkdKCYFqACrzgf9C352LfuxyWRWg1/yhT/nRE5IsZWuZtCSK8CPeI0e/hF+jV7AJM4PO7KWCyr390bSiNtEtQM=);strokeColor=#000000;strokeWidth=2;spacingTop=-3;spacingBottom=-3;spacingLeft=-3;spacingRight=-3;points=[];labelBackgroundColor=none;rounded=0;html=1;whiteSpace=wrap;" parent="1" vertex="1">
            <mxGeometry x="873" y="533" width="38" height="108" as="geometry" />
          </mxCell>
        </UserObject>
        <mxCell id="70" parent="1" vertex="1">
          <mxGeometry x="1007" y="758" as="geometry" />
        </mxCell>
        <UserObject label="" tags="Background" id="71">
          <mxCell style="vsdxID=69;edgeStyle=none;dashed=1;startArrow=none;endArrow=none;startSize=5;endSize=5;strokeWidth=2;spacingTop=0;spacingBottom=0;spacingLeft=0;spacingRight=0;verticalAlign=middle;html=1;labelBackgroundColor=#ffffff;rounded=0;exitX=1;exitY=0.48;exitDx=0;exitDy=0;exitPerimeter=0;" parent="1" source="10" target="70" edge="1">
            <mxGeometry relative="1" as="geometry">
              <mxPoint x="-329" y="102" as="offset" />
              <Array as="points">
                <mxPoint x="678.63" y="758" />
                <mxPoint x="678.63" y="758" />
              </Array>
            </mxGeometry>
          </mxCell>
        </UserObject>
        <mxCell id="72" parent="1" vertex="1">
          <mxGeometry x="1001" y="1066" as="geometry" />
        </mxCell>
        <UserObject label="" tags="Background" id="73">
          <mxCell style="vsdxID=70;edgeStyle=none;dashed=1;startArrow=none;endArrow=none;startSize=5;endSize=5;strokeWidth=2;spacingTop=0;spacingBottom=0;spacingLeft=0;spacingRight=0;verticalAlign=middle;html=1;labelBackgroundColor=#ffffff;rounded=0;exitX=1;exitY=0.66;exitDx=0;exitDy=0;exitPerimeter=0;" parent="1" source="11" target="72" edge="1">
            <mxGeometry relative="1" as="geometry">
              <mxPoint x="-326" y="102" as="offset" />
              <Array as="points">
                <mxPoint x="675.5" y="1066" />
                <mxPoint x="675.5" y="1066" />
              </Array>
            </mxGeometry>
          </mxCell>
        </UserObject>
        <mxCell id="oUiSQKWC_1ksQCGSQ3XR-74" value="" style="verticalLabelPosition=bottom;sketch=0;html=1;fillColor=#282828;strokeColor=none;verticalAlign=top;pointerEvents=1;align=center;shape=mxgraph.cisco_safe.security_icons.ngips;" vertex="1" parent="1">
          <mxGeometry x="378.75" y="1206" width="60.25" height="74" as="geometry" />
        </mxCell>
        <mxCell id="oUiSQKWC_1ksQCGSQ3XR-75" value="安全套件" style="text;html=1;strokeColor=none;fillColor=none;align=center;verticalAlign=middle;whiteSpace=wrap;rounded=0;" vertex="1" parent="1">
          <mxGeometry x="380" y="1273" width="60" height="30" as="geometry" />
        </mxCell>
      </root>
    </mxGraphModel>
  </diagram>
</mxfile>
